<?xml version="1.0" encoding="UTF-8"?>
<svg width="313px" height="209px" viewBox="0 0 313 209" version="1.1" xmlns="http://www.w3.org/2000/svg" xmlns:xlink="http://www.w3.org/1999/xlink">
    <!-- Generator: Sketch 54.1 (76490) - https://sketchapp.com -->
    <title>ample-logo</title>
    <desc>Created with Sketch.</desc>
    <g id="Page-1" stroke="none" stroke-width="1" fill="none" fill-rule="evenodd">
        <g id="ample-logo" transform="translate(0.000000, -1.000000)" fill="#313D3E">
            <path d="M296.032,116.178 C295.534639,114.036346 295.909598,111.784811 297.074187,109.91993 C298.238777,108.055049 300.097338,106.730001 302.24,106.237 C305.507548,105.480189 308.9092,106.766625 310.85825,109.496247 C312.8073,112.225869 312.91976,115.860908 311.143173,118.705793 C309.366586,121.550679 306.050963,123.044932 302.742881,122.491557 C299.434798,121.938182 296.785991,119.4462 296.032,116.178 L296.032,116.178 Z M288.085,107.72 C288.389052,109.016694 288.347328,110.370491 287.964,111.646 C287.081,113.838 285.987,115.846 284.792,117.75 L240.207,128.046 C231.488,122.64 224.597,113.384 221.943,101.896 C217.059,80.73 228.298,60.004 247.01,55.684 C265.72,51.364 284.912,65.064 289.799,86.23 C289.886,86.607 289.959,86.991 290.019,87.371 L290.097,87.814 C290.317,90.936 288.471,93.536 285.735,94.167 L282.403,94.947 L276.454,96.321 L240.057,104.724 C244.552,113.539 252.993,118.333 261.045,116.476 C266.14,115.3 270.283,111.653 272.696,106.214 C273.838,103.924 275.856,102.312 278.293,101.751 C282.7,100.734 287.095,103.409 288.085,107.72 L288.085,107.72 Z M248.485,71.966 C242.235,74.714 238.034,81.378 237.394,89.213 L271.645,81.308 C267.645,74.542 260.943,70.395 254.197,70.66 C253.200511,70.6953362 252.209519,70.8238972 251.237,71.044 C250.335,71.251 249.436,71.552 248.485,71.966 L248.485,71.966 Z M219.385,105.559 C219.406,105.639 219.407,105.721 219.423,105.809 L225.209,130.782 C225.209,130.794 225.215,130.81 225.219,130.823 L205.836,135.3 C205.835,135.285 205.826,135.269 205.821,135.256 L199.998,110.035 L189.178,63.16 L177.325,11.827 C177.028,6.789 180.323,2.331 185.095,1.229 C189.862,0.129 194.783,2.686 196.545,7.182 L219.385,105.559 Z M192.33,135.664 C192.298,135.73 192.267,135.802 192.23,135.872 C187.73,144.791 179.964,151.55 170.103,153.829 C163.6,155.329 157.063,154.647 151.076,152.307 L161.496,197.435 C162.709,202.704 159.419,207.959 154.149,209.175 C148.869,210.395 143.609,207.113 142.396,201.845 L131.082,152.837 L123.395,119.541 L121.552,111.561 L121.527,111.567 C119.985,105.749 114.115,102.16 108.202,103.525 C102.297,104.888 98.592,110.687 99.762,116.592 L99.734,116.598 L109.251,157.821 C109.255,157.838 109.256,157.853 109.261,157.873 L90.167,162.283 C90.162,162.263 90.154,162.25 90.15,162.231 L80.633,121.006 L80.594,121.015 C79.059,115.195 73.186,111.606 67.282,112.97 C61.373,114.334 57.677,120.133 58.842,126.037 L58.808,126.047 L68.323,167.27 C68.327,167.289 68.328,167.302 68.333,167.322 L12.444,180.227 C8.469,177.127 5.532,172.867 4.36,167.779 C2.583,160.095 5.18,152.327 10.627,146.657 C12.852,144.337 15.586,142.432 18.663,140.957 L39.808,130.855 L39.006,127.391 C38.459,125.019 34.476,120.616 26.916,122.361 C15.763,124.938 19.932,136.331 11.548,138.269 C6.772,139.372 2.006,136.393 0.903,131.623 C0.584,130.243 0.659,128.885 0.973,127.589 C3.429,118.127 11.941,109.954 23.437,107.299 C32.131,105.292 40.698,106.873 47.104,110.974 C50.377,104.634 56.306,99.711 63.818,97.977 C72.37,96.003 80.896,98.629 86.814,104.224 C89.683,96.6 96.2,90.504 104.74,88.532 C114.28,86.327 123.78,89.86 129.676,96.852 C134.044,87.238 142.111,79.904 152.48,77.508 C170.418,73.366 188.654,85.465 194.575,104.809 C194.874,105.793 195.165,106.78 195.397,107.795 C195.715,109.172 195.955,110.553 196.144,111.919 C196.191,112.317 196.204,112.709 196.247,113.097 C196.353,114.087 196.447,115.067 196.481,116.044 C196.494,116.465 196.491,116.874 196.481,117.297 C196.491,118.248 196.482,119.197 196.427,120.131 C196.408,120.509 196.362,120.885 196.327,121.268 C196.247,122.241 196.133,123.214 195.985,124.166 C195.933,124.479 195.875,124.795 195.813,125.111 C195.628953,126.120888 195.408812,127.123864 195.153,128.118 C195.084,128.364 195.014,128.59 194.957,128.838 C194.65954,129.89365 194.317568,130.936249 193.932,131.963 C193.879,132.122 193.812,132.277 193.762,132.426 C193.335175,133.526971 192.857324,134.607474 192.33,135.664 L192.33,135.664 Z M44.42,152.664 L42.828,145.706 C42.828,145.706 30.714,152.102 26.399,154.33 C22.083,156.562 19.703,160.527 20.531,164.116 C22.001,170.485 27.979,170.236 32.936,169.091 C40.946,167.242 46.086,159.891 44.42,152.664 L44.42,152.664 Z M156.088,92.331 C147.485,94.317 142.165,103.961 142.98,114.963 C143.087,116.518 143.322,118.1 143.69,119.694 C146.657,132.539 157.015,141.128 166.832,138.859 C176.656,136.591 182.198,124.334 179.233,111.491 C178.877728,109.933535 178.401277,108.406218 177.808,106.923 C173.715,96.677 164.699,90.343 156.088,92.331 L156.088,92.331 Z" id="Shape"></path>
        </g>
    </g>
</svg>