<?xml version="1.0" encoding="UTF-8"?>
<svg width="3001px" height="2350px" viewBox="0 0 3001 2350" version="1.1" xmlns="http://www.w3.org/2000/svg" xmlns:xlink="http://www.w3.org/1999/xlink">
    <!-- Generator: Sketch 54.1 (76490) - https://sketchapp.com -->
    <title>Artboard</title>
    <desc>Created with Sketch.</desc>
    <g id="Artboard" stroke="none" stroke-width="1" fill="none" fill-rule="evenodd">
        <g id="cincinnati-meetup-logo-02" transform="translate(0.000000, 193.000000)">
            <g id="Group" transform="translate(0.000000, 552.000000)" fill-rule="nonzero">
                <g transform="translate(1149.000000, 207.000000)" fill="#313D3E" id="Path">
                    <path d="M695.1,374.1 C695,374.1 694.9,374.1 694.8,374.1 C691.2,373.9 688.4,370.9 688.6,367.3 C688.8,362.1 689,356.8 689,351.5 C689,261.2 653.8,176.3 590,112.5 C526.2,48.7 441.3,13.5 351,13.5 C260.7,13.5 175.8,48.7 112,112.5 C48.2,176.3 13,261.2 13,351.5 C13,356 13.1,360.5 13.3,365 C13.4,368.6 10.6,371.6 7.1,371.8 C3.5,371.9 0.5,369.1 0.4,365.6 C0.2,361 0.1,356.2 0.1,351.6 C0.1,304.2 9.4,258.3 27.7,215 C45.4,173.2 70.7,135.7 102.9,103.4 C135.1,71.2 172.7,45.9 214.5,28.2 C257.8,9.9 303.7,0.6 351.1,0.6 C398.5,0.6 444.4,9.9 487.7,28.2 C529.5,45.9 567,71.2 599.3,103.4 C631.6,135.6 656.8,173.2 674.5,215 C692.8,258.3 702.1,304.2 702.1,351.6 C702.1,357 702,362.6 701.7,368 C701.5,371.4 698.6,374.1 695.1,374.1 Z"></path>
                </g>
                <g transform="translate(1094.000000, 152.000000)" fill="#313D3E" id="Path">
                    <path d="M804.9,434.4 C804.8,434.4 804.7,434.4 804.6,434.4 C801,434.2 798.3,431.2 798.5,427.6 C798.9,420.6 799.1,413.5 799.1,406.5 C799.1,353.4 788.7,302 768.2,253.5 C748.4,206.7 720.1,164.7 684,128.6 C647.9,92.5 605.9,64.2 559.1,44.4 C510.7,23.9 459.2,13.5 406.1,13.5 C353,13.5 301.6,23.9 253.1,44.4 C206.3,64.2 164.3,92.5 128.2,128.6 C92.1,164.7 63.8,206.7 44,253.5 C23.5,301.9 13.1,353.4 13.1,406.5 C13.1,411.6 13.2,416.7 13.4,421.7 C13.5,425.3 10.7,428.3 7.2,428.4 C3.6,428.5 0.6,425.7 0.5,422.2 C0.3,417 0.2,411.7 0.2,406.5 C0.2,351.7 10.9,298.5 32.1,248.5 C52.5,200.2 81.8,156.7 119.1,119.5 C156.4,82.3 199.8,52.9 248.1,32.5 C298.2,11.3 351.3,0.6 406.1,0.6 C460.9,0.6 514.1,11.3 564.1,32.5 C612.4,52.9 655.9,82.2 693.1,119.5 C730.3,156.8 759.7,200.2 780.1,248.5 C801.3,298.6 812,351.7 812,406.5 C812,413.7 811.8,421.1 811.4,428.3 C811.2,431.8 808.4,434.4 804.9,434.4 Z"></path>
                </g>
                <g transform="translate(1472.000000, 305.000000)" fill="#00C7B7" id="Shape">
                    <path d="M46.4,7.6 C41.5,3.2 35.1,0.5 28,0.5 C19.5,0.5 11.9,4.4 6.8,10.4 C2.8,15.2 0.5,21.3 0.5,28 C0.5,34.7 2.9,40.8 6.8,45.6 C11.9,51.7 19.5,55.5 28,55.5 C35.1,55.5 41.6,52.8 46.4,48.4 C52,43.4 55.5,36.1 55.5,28 C55.5,19.9 52,12.7 46.4,7.6 Z M28,42.5 C20,42.5 13.5,36 13.5,28 C13.5,20 20,13.5 28,13.5 C36,13.5 42.5,20 42.5,28 C42.5,36 36,42.5 28,42.5 Z"></path>
                </g>
                <g transform="translate(1447.000000, 280.000000)" fill="#00C7B7" id="Shape">
                    <path d="M18.8,72.8 L18.8,92.8 C22.7,96.1 27.1,98.9 31.8,101 L31.8,86.3 C26.5,82.9 22,78.3 18.8,72.8 Z M53,92.5 C45.2,92.5 38,90.2 31.8,86.3 C26.5,82.9 22,78.2 18.8,72.8 L18.8,92.8 C22.7,96.1 27.1,98.9 31.8,101 C38.3,103.9 45.4,105.5 53,105.5 C59.5,105.5 65.7,104.3 71.4,102.2 L71.4,88 C65.9,90.8 59.7,92.5 53,92.5 Z M53,92.5 C45.2,92.5 38,90.2 31.8,86.3 C26.5,82.9 22,78.2 18.8,72.8 L18.8,92.8 C22.7,96.1 27.1,98.9 31.8,101 C38.3,103.9 45.4,105.5 53,105.5 C59.5,105.5 65.7,104.3 71.4,102.2 L71.4,88 C65.9,90.8 59.7,92.5 53,92.5 Z M100.5,30.7 C96.8,22.9 91.3,16.1 84.4,10.9 C80.5,7.9 76.1,5.5 71.4,3.8 C65.7,1.6 59.5,0.5 53,0.5 C45.5,0.5 38.3,2.1 31.8,5 C27.1,7.1 22.7,9.9 18.8,13.2 C11.3,19.6 5.6,28.1 2.7,37.8 C1.2,42.6 0.5,47.7 0.5,53 C0.5,58.3 1.3,63.4 2.7,68.2 C5.6,77.9 11.3,86.4 18.8,92.8 C22.7,96.1 27.1,98.9 31.8,101 C38.3,103.9 45.4,105.5 53,105.5 C59.5,105.5 65.7,104.3 71.4,102.2 C76.1,100.4 80.5,98 84.4,95.1 C91.3,90 96.8,83.2 100.5,75.3 C103.7,68.5 105.5,61 105.5,53 C105.5,45 103.7,37.5 100.5,30.7 Z M84.4,76.9 C80.9,81.5 76.5,85.2 71.4,87.9 C65.9,90.8 59.6,92.5 53,92.5 C45.2,92.5 38,90.2 31.8,86.3 C26.5,82.9 22,78.2 18.8,72.8 C15.4,67 13.5,60.2 13.5,53 C13.5,45.8 15.4,39 18.8,33.2 C22,27.7 26.5,23.1 31.8,19.7 C37.9,15.8 45.2,13.5 53,13.5 C59.7,13.5 65.9,15.2 71.4,18.1 C76.5,20.8 80.9,24.6 84.4,29.1 C89.5,35.7 92.5,44 92.5,53 C92.5,62 89.5,70.2 84.4,76.9 Z M53,92.5 C45.2,92.5 38,90.2 31.8,86.3 C26.5,82.9 22,78.2 18.8,72.8 L18.8,92.8 C22.7,96.1 27.1,98.9 31.8,101 C38.3,103.9 45.4,105.5 53,105.5 C59.5,105.5 65.7,104.3 71.4,102.2 L71.4,88 C65.9,90.8 59.7,92.5 53,92.5 Z M53,92.5 C45.2,92.5 38,90.2 31.8,86.3 C26.5,82.9 22,78.2 18.8,72.8 L18.8,92.8 C22.7,96.1 27.1,98.9 31.8,101 C38.3,103.9 45.4,105.5 53,105.5 C59.5,105.5 65.7,104.3 71.4,102.2 L71.4,88 C65.9,90.8 59.7,92.5 53,92.5 Z"></path>
                </g>
                <g transform="translate(1191.140000, 107.000000)" fill="#313D3E">
                    <g transform="translate(245.000000, 0.000000)" id="Shape">
                        <path d="M29.7,265.8 L29.7,461 L42.7,461 L42.7,274 C38,271.9 33.6,269.2 29.7,265.8 Z M29.7,265.8 L29.7,461 L42.7,461 L42.7,274 C38,271.9 33.6,269.2 29.7,265.8 Z M29.7,265.8 L29.7,461 L42.7,461 L42.7,274 C38,271.9 33.6,269.2 29.7,265.8 Z M36.3,0.9 L7.2,0.5 C5.4,0.5 3.8,1.2 2.5,2.4 C1.3,3.6 0.6,5.3 0.6,7 L0.6,467.6 C0.6,471.2 3.5,474.1 7.1,474.1 L36.2,474.1 C39.8,474.1 42.7,471.2 42.7,467.6 L42.7,7.4 C42.7,3.9 39.8,1 36.3,0.9 Z M29.7,461.1 L13.6,461.1 L13.6,13.6 L29.7,13.8 L29.7,461.1 Z M29.7,265.8 L29.7,461 L42.7,461 L42.7,274 C38,271.9 33.6,269.2 29.7,265.8 Z M29.7,265.8 L29.7,461 L42.7,461 L42.7,274 C38,271.9 33.6,269.2 29.7,265.8 Z"></path>
                    </g>
                    <g transform="translate(0.000000, 240.000000)" id="Path">
                        <path d="M36.8,234.1 C36.7,234.1 36.7,234.1 36.8,234.1 L7,233.8 C3.4,233.8 0.6,230.9 0.6,227.3 L0.6,47.3 C0.6,43.7 3.5,40.8 7.1,40.8 C10.7,40.8 13.6,43.7 13.6,47.3 L13.6,220.9 L30.4,221.1 L30.4,7 C30.4,3.4 33.3,0.5 36.9,0.5 C40.5,0.5 43.4,3.4 43.4,7 L43.4,227.6 C43.4,229.3 42.7,231 41.5,232.2 C40.1,233.4 38.5,234.1 36.8,234.1 Z"></path>
                    </g>
                    <g transform="translate(78.000000, 159.000000)" id="Path">
                        <path d="M40.4,315.1 L7.4,315.1 C3.8,315.1 0.9,312.2 0.9,308.6 L0.9,35 C0.9,31.4 3.8,28.5 7.4,28.5 C11,28.5 13.9,31.4 13.9,35 L13.9,302.1 L33.9,302.1 L33.9,6.9 C33.9,3.3 36.8,0.4 40.4,0.4 C44,0.4 46.9,3.3 46.9,6.9 L46.9,308.6 C46.9,312.2 44,315.1 40.4,315.1 Z"></path>
                    </g>
                    <g transform="translate(159.000000, 121.000000)" id="Path">
                        <path d="M40.4,353.1 L6.7,353.1 C3.1,353.1 0.2,350.2 0.2,346.6 L0.2,22.4 C0.2,18.8 3.1,15.9 6.7,15.9 C10.3,15.9 13.2,18.8 13.2,22.4 L13.2,340 L33.9,340 L33.9,6.5 C33.9,2.9 36.8,0 40.4,0 C44,0 46.9,2.9 46.9,6.5 L46.9,346.6 C46.9,350.2 44,353.1 40.4,353.1 Z"></path>
                    </g>
                </g>
                <g transform="translate(1662.140000, 344.500000) scale(-1, 1) translate(-1662.140000, -344.500000) translate(1518.140000, 107.000000)" fill="#313D3E">
                    <g transform="translate(245.000000, 0.000000)" id="Shape">
                        <path d="M42.7,260.9 L42.7,461.1 L29.7,461.1 L29.7,249.9 C33.2,254.4 37.6,258.2 42.7,260.9 Z M42.7,260.9 L42.7,461.1 L29.7,461.1 L29.7,249.9 C33.2,254.4 37.6,258.2 42.7,260.9 Z M42.7,260.9 L42.7,461.1 L29.7,461.1 L29.7,249.9 C33.2,254.4 37.6,258.2 42.7,260.9 Z M7.1,0.5 L36.2,0.5 C39.8,0.5 42.7,3.4 42.7,7 L42.7,467.6 C42.7,471.2 39.8,474.1 36.2,474.1 L7.1,474.1 C3.5,474.1 0.6,471.2 0.6,467.6 L0.6,7 C0.6,3.4 3.5,0.5 7.1,0.5 Z M13.6,461.1 L29.7,461.1 L29.7,13.5 L13.6,13.5 L13.6,461.1 Z M42.7,260.9 L42.7,461.1 L29.7,461.1 L29.7,249.9 C33.2,254.4 37.6,258.2 42.7,260.9 Z M42.7,260.9 L42.7,461.1 L29.7,461.1 L29.7,249.9 C33.2,254.4 37.6,258.2 42.7,260.9 Z"></path>
                    </g>
                    <g transform="translate(0.000000, 240.000000)" id="Path">
                        <path d="M36.8,234.1 C38.5,234.1 40.2,233.4 41.4,232.2 C42.6,231 43.3,229.3 43.3,227.6 L43.3,7 C43.3,3.4 40.4,0.5 36.8,0.5 C33.2,0.5 30.3,3.4 30.3,7 L30.3,221 L13.5,220.8 L13.5,47.3 C13.5,43.7 10.6,40.8 7,40.8 C3.4,40.8 0.5,43.7 0.5,47.3 L0.5,227.3 C0.5,230.9 3.4,233.8 6.9,233.8 L36.8,234.1 C36.7,234.1 36.7,234.1 36.8,234.1 Z"></path>
                    </g>
                    <g transform="translate(78.000000, 159.000000)" id="Path">
                        <path d="M7.4,315.1 L40.4,315.1 C44,315.1 46.9,312.2 46.9,308.6 L46.9,6.9 C46.9,3.3 44,0.4 40.4,0.4 C36.8,0.4 33.9,3.3 33.9,6.9 L33.9,302.1 L13.9,302.1 L13.9,35 C13.9,31.4 11,28.5 7.4,28.5 C3.8,28.5 0.9,31.4 0.9,35 L0.9,308.6 C0.9,312.2 3.8,315.1 7.4,315.1 Z"></path>
                    </g>
                    <g transform="translate(159.000000, 121.000000)" id="Path">
                        <path d="M6.7,353.1 L40.4,353.1 C44,353.1 46.9,350.2 46.9,346.6 L46.9,6.5 C46.9,2.9 44,0 40.4,0 C36.8,0 33.9,2.9 33.9,6.5 L33.9,340.1 L13.2,340.1 L13.2,22.4 C13.2,18.8 10.3,15.9 6.7,15.9 C3.1,15.9 0.2,18.8 0.2,22.4 L0.2,346.5 C0.2,350.2 3.1,353.1 6.7,353.1 Z"></path>
                    </g>
                </g>
                <g transform="translate(0.035000, 0.000000)" fill="#313D3E">
                    <g transform="translate(401.000000, 603.000000)" id="Path">
                        <path d="M24.5,84 C20.9,84 18,81.1 18,77.5 L18,13.6 L7.4,13.6 C3.8,13.6 0.9,10.7 0.9,7.1 C0.9,3.5 3.8,0.6 7.4,0.6 L24.5,0.6 C28.1,0.6 31,3.5 31,7.1 L31,77.5 C31,81.1 28.1,84 24.5,84 Z"></path>
                    </g>
                    <g transform="translate(445.000000, 603.000000)" id="Path">
                        <path d="M23.6,84 C20,84 17.1,81.1 17.1,77.5 L17.1,13.6 L13.2,13.6 L13.2,77.5 C13.2,81.1 10.3,84 6.7,84 C3.1,84 0.2,81.1 0.2,77.5 L0.2,7.1 C0.2,3.5 3.1,0.6 6.7,0.6 L23.6,0.6 C27.2,0.6 30.1,3.5 30.1,7.1 L30.1,77.5 C30.1,81.1 27.2,84 23.6,84 Z"></path>
                    </g>
                    <g transform="translate(490.000000, 603.000000)" id="Path">
                        <path d="M29.2,84.5 C25.6,84.5 22.7,81.6 22.7,78 L22.7,13.6 L13.5,13.6 L13.5,77.5 C13.5,81.1 10.6,84 7,84 C3.4,84 0.5,81.1 0.5,77.5 L0.5,7.1 C0.5,3.5 3.4,0.6 7,0.6 L29.2,0.6 C32.8,0.6 35.7,3.5 35.7,7.1 L35.7,78 C35.7,81.6 32.8,84.5 29.2,84.5 Z"></path>
                    </g>
                    <g transform="translate(540.000000, 612.000000)" id="Path">
                        <path d="M26.3,75 C22.7,75 19.8,72.1 19.8,68.5 L19.8,13 L13.5,13 L13.5,68.5 C13.5,72.1 10.6,75 7,75 C3.4,75 0.5,72.1 0.5,68.5 L0.5,6.5 C0.5,2.9 3.4,0 7,0 L26.3,0 C29.9,0 32.8,2.9 32.8,6.5 L32.8,68.5 C32.8,72.1 29.9,75 26.3,75 Z"></path>
                    </g>
                    <g transform="translate(591.000000, 612.000000)" id="Path">
                        <path d="M6.9,75.2 C3.3,75.2 0.4,72.3 0.4,68.7 L0.4,6.5 C0.4,2.9 3.3,0 6.9,0 L29.2,0 C32.8,0 35.7,2.9 35.7,6.5 L35.7,68.5 C35.7,72.1 32.8,75 29.2,75 C25.6,75 22.7,72.1 22.7,68.5 L22.7,13 L13.4,13 L13.4,68.7 C13.4,72.3 10.5,75.2 6.9,75.2 Z"></path>
                    </g>
                    <g transform="translate(643.000000, 612.000000)" id="Path">
                        <path d="M7.2,75.5 C3.6,75.5 0.7,72.6 0.7,69 L0.7,6.5 C0.7,2.9 3.6,0 7.2,0 L30.1,0 C33.7,0 36.6,2.9 36.6,6.5 L36.6,68.5 C36.6,72.1 33.7,75 30.1,75 C26.5,75 23.6,72.1 23.6,68.5 L23.6,13 L13.7,13 L13.7,69 C13.7,72.6 10.8,75.5 7.2,75.5 Z"></path>
                    </g>
                    <g transform="translate(749.000000, 612.000000)" id="Path">
                        <path d="M7.4,75 C3.8,75 0.9,72.1 0.9,68.5 L0.9,6.5 C0.9,2.9 3.8,0 7.4,0 L33.1,0 C36.7,0 39.6,2.9 39.6,6.5 L39.6,62.5 C39.6,66.1 36.7,69 33.1,69 C29.5,69 26.6,66.1 26.6,62.5 L26.6,13 L13.9,13 L13.9,68.5 C13.9,72.1 10.9,75 7.4,75 Z"></path>
                    </g>
                    <g transform="translate(800.000000, 612.000000)" id="Path">
                        <path d="M6.9,75 C3.3,75 0.4,72.1 0.4,68.5 L0.4,6.5 C0.4,2.9 3.3,0 6.9,0 L27.6,0 C31.2,0 34.1,2.9 34.1,6.5 L34.1,63.8 C34.1,67.4 31.2,70.3 27.6,70.3 C24,70.3 21.1,67.4 21.1,63.8 L21.1,13 L13.4,13 L13.4,68.5 C13.4,72.1 10.5,75 6.9,75 Z"></path>
                    </g>
                    <g transform="translate(50.000000, 582.000000)" id="Path">
                        <path d="M42.6,145.1 C41.9,145.1 41.3,145 40.6,144.8 L5.1,133.4 C2.4,132.5 0.6,130 0.6,127.2 L0.6,12.5 C0.6,9.1 3.2,6.3 6.6,6 L77.6,0.3 C81.2,0 84.3,2.7 84.6,6.3 C84.9,9.9 82.2,13 78.6,13.3 L13.6,18.5 L13.6,122.5 L36.1,129.7 L36.1,72.7 C36.1,69.1 39,66.2 42.6,66.2 L78.1,66.2 C81.7,66.2 84.6,69.1 84.6,72.7 C84.6,76.3 81.7,79.2 78.1,79.2 L49.1,79.2 L49.1,138.6 C49.1,140.7 48.1,142.6 46.4,143.9 C45.3,144.7 44,145.1 42.6,145.1 Z"></path>
                    </g>
                    <g transform="translate(16.000000, 621.000000)" id="Path">
                        <path d="M41.2,92.5 L7.4,92.5 C3.8,92.5 0.9,89.6 0.9,86 L0.9,13.7 C0.9,10.6 3.1,7.9 6.1,7.3 L39.9,0.6 C43.4,-0.1 46.8,2.2 47.5,5.7 C48.2,9.2 45.9,12.6 42.4,13.3 L13.9,19 L13.9,79.5 L41.2,79.5 C44.8,79.5 47.7,82.4 47.7,86 C47.7,89.6 44.7,92.5 41.2,92.5 Z"></path>
                    </g>
                    <g transform="translate(0.000000, 673.000000)" id="Shape">
                        <path d="M1499,1.2 C1498.5,1.1 1498,1 1497.5,1 C1330.1,0.7 1233.3,6.5 1201.8,18.9 C1200.6,19.4 1199.6,20.2 1198.9,21.2 C1184.3,18 1168.9,17.1 1158.3,21.9 C1157.9,22.1 1157.6,22.2 1157.3,22.5 C1138.8,35.3 1120.2,47 1101.9,58 C1100.8,57.1 1099.4,56.6 1098,56.6 L1017.3,55.6 C1013.7,55.5 1010.8,58.4 1010.7,62 C1010.6,65.6 1013.5,68.5 1017.1,68.6 L1082.4,69.4 C1078.7,71.5 1075,73.6 1071.4,75.6 C1070.3,73.8 1068.3,72.6 1066,72.6 L985.3,71.6 L985.2,71.6 C981.6,71.6 978.7,74.4 978.7,78 C978.6,81.6 981.5,84.5 985.1,84.6 L1053.6,85.4 C1049.6,87.6 1045.7,89.7 1041.7,91.8 C1040.5,90.5 1038.8,89.6 1036.9,89.6 L957.5,88.6 C960.3,86.5 962.4,83.7 963.6,80.4 C963.7,80.2 966.3,74.2 996.8,68.7 C1000.3,68.6 1003,65.7 1003,62.2 L1003,47.7 C1003,36.7 989.8,29.3 961.5,24.2 C957.1,23.4 952.4,22.7 947.5,22.1 C930.2,19.9 910.1,18.6 891.2,18.6 C884.4,18.6 877.8,18.8 871.4,19.2 C858,20 845.2,21.3 831.9,22.8 C809.5,25.2 786.3,27.7 756.4,27.7 C719.9,27.7 697.4,44.9 677.6,60.1 C665.4,69.4 653.9,78.3 640.7,81.6 C616,87.8 585.5,105.3 550.1,133.4 C478.5,125.3 424.6,121.1 389.8,121.1 C365.3,121.1 348.1,131.7 333,141 C314.2,152.7 299.2,161.9 274.3,148.6 C228.5,124.2 65.2,131.8 0.1,143.7 L0.1,157 C25.6,152.2 72.3,147.4 123.9,146 C195.1,144.1 247.7,149.2 268.2,160.1 C299.8,176.9 320.2,164.3 339.9,152.1 C354.2,143.3 369,134.1 389.9,134.1 C424.7,134.1 479,138.3 551.4,146.6 C553.1,146.8 554.9,146.3 556.2,145.2 C591.1,117.2 620.6,100.1 644,94.2 C659.8,90.2 672.3,80.6 685.6,70.4 C704.7,55.8 724.4,40.7 756.5,40.7 C787.1,40.7 810.6,38.2 833.3,35.7 C852.6,33.6 870.9,31.6 891.2,31.6 C913.4,31.6 937.8,33.4 956.4,36.6 C985.4,41.4 989.7,47.3 990.1,48 L990.1,56.8 C966.7,61.4 954.7,67.4 951.5,75.9 C950.3,79 946.3,80.4 941.8,81 L941.8,75 C941.8,71.4 938.9,68.5 935.3,68.5 L891.2,68.5 C888.2,68.5 885.6,70.5 884.9,73.5 C884.2,76.4 885.5,79.4 888.2,80.8 C897.6,85.7 899.1,88.9 899.3,89.8 C899.4,90.1 899.5,90.6 898.8,91.6 C896.3,95.5 889.9,103.2 873.6,118.4 L862.3,106.3 C861.1,105 859.3,104.2 857.5,104.2 L817.2,104.2 C814.9,104.2 812.8,105.4 811.6,107.3 C810.4,109.3 810.4,111.7 811.4,113.7 C819.5,129.2 814.5,133.8 812.9,135.3 C806.9,140.8 796.2,145 780.9,147.9 C779.2,148.2 777.8,149.2 776.8,150.6 L771.2,158.6 L762.9,158.6 L762.9,154.3 C762.9,150.7 760,147.8 756.4,147.8 L701,147.8 C698.8,147.8 696.8,148.9 695.6,150.8 C694.4,152.6 694.2,155 695.1,157 C700.2,168.5 700.5,177 696.1,182.1 C692.5,186.3 682.3,194.8 654.6,211.7 L648.6,184.9 C647.9,181.9 645.3,179.8 642.3,179.8 L575.6,179.8 C572.5,179.8 569.9,181.9 569.2,184.9 L561.2,221.9 L514.5,216.1 L514.5,204.2 C514.5,200.9 512,198.1 508.6,197.7 L437.4,190.6 C434.6,190.3 432,191.9 430.8,194.4 C429.7,197 430.3,200 432.3,201.9 C465.6,232.3 470.3,248.6 468.3,257.1 C467.6,257.9 464.4,260.8 451.3,266.1 L477.5,266.1 C479.4,264.2 480.2,262.5 480.6,260.9 C484.6,246.2 476.1,228 454.4,205.4 L501.2,210.1 L501.2,221.9 C501.2,225.2 503.6,227.9 506.9,228.4 L565.2,235.7 C568.5,236.1 571.6,233.9 572.4,230.6 L580.5,192.9 L637,192.9 L643.8,223.4 C644.3,225.4 645.7,227.1 647.6,227.9 C649.5,228.7 651.7,228.6 653.5,227.5 C654.3,227 655.1,226.5 655.9,226 C655.4,226.9 655.1,228 655.1,229.1 C655.1,232.7 658,235.6 661.6,235.6 L809.7,235.6 C813.3,235.6 816.2,232.7 816.2,229.1 C816.2,225.5 813.3,222.6 809.7,222.6 L661.6,222.6 C685.4,208.1 699.9,197.6 706,190.5 C712.4,183 713.9,173.1 710.4,160.8 L749.9,160.8 L749.9,165.1 C749.9,168.7 752.8,171.6 756.4,171.6 L774.6,171.6 C776.7,171.6 778.7,170.6 779.9,168.8 L786,160.2 C802.5,156.8 814.2,151.8 821.7,144.9 C827,140 831.7,131.5 827,117.2 L854.7,117.2 L868.4,132 C869.3,132.9 870.3,133.5 871.4,133.8 C868.7,134.6 866.7,137 866.6,140 C866.6,143.6 869.4,146.5 873,146.6 L931.8,147.3 C921.6,152.5 912.1,157.4 903.6,162.2 C902.6,160.1 900.4,158.6 897.9,158.6 L817.2,157.6 L817.1,157.6 C813.6,157.6 810.6,160.4 810.6,164 C810.6,167.6 813.4,170.5 817,170.6 L887.7,171.5 C876.6,178.3 867.6,184.9 861,191.5 C860.1,191 859,190.7 857.8,190.7 L742.5,190.7 C738.9,190.7 736,193.6 736,197.2 C736,200.8 738.9,203.7 742.5,203.7 L851.6,203.7 C850.4,205.8 849.6,208 848.9,210.1 C846.7,217.7 847.8,225.2 852.3,232.6 C853.5,234.5 855.5,235.7 857.8,235.7 L984.1,236.7 C985.6,236.7 987.1,236.2 988.3,235.2 C1010.1,217.5 1016.3,216.6 1017.3,216.6 C1023.9,216.6 1032.6,213.9 1043.8,208.4 C1045.4,207.6 1046.6,206.3 1047.1,204.6 C1051.2,192.2 1056.2,183.2 1062,178 C1067.3,173.1 1076.4,170.7 1089,170.7 C1091.9,170.7 1094.5,168.8 1095.3,165.9 C1102.3,140.9 1108.7,139.7 1109.4,139.6 C1116.8,139 1125.5,138.7 1135.3,138.7 C1137.7,138.7 1139.8,137.4 1141,135.4 L1154.6,111 C1163.2,104.2 1171,101.1 1177.9,101.6 C1189,102.4 1193.3,92.2 1196.2,85.4 C1199.5,77.6 1201.1,75 1204.4,75 C1216.3,75 1222.3,65.6 1226.7,58.7 C1230,53.6 1232.3,50.3 1234.7,50.3 C1239.9,50.3 1241.8,47.4 1242.5,45.7 C1242.9,44.7 1244,40.9 1240.4,37.4 C1237.8,34.9 1230,30.9 1219.9,27.3 C1260,18.3 1353.3,13.8 1497.8,14.1 L1497.8,14.1 C1498.3,14.1 1498.9,14 1499.3,13.9 C1502.1,13.2 1504.2,10.7 1504.3,7.6 C1504.4,4.5 1501.9,1.9 1499,1.2 Z M875.5,133.5 C876.2,133.2 876.9,132.8 877.5,132.3 C894.5,116.8 905,105.7 909.6,98.5 C912.1,94.6 912.8,90.4 911.7,86.3 C911.2,84.6 910.5,83 909.5,81.4 L928.7,81.4 L928.7,87.8 C928.7,91.4 931.6,94.3 935.2,94.3 L935.3,94.3 C941.2,94.3 946.2,93.6 950.3,92.2 C949.9,93 949.7,94 949.7,94.9 C949.7,98.5 952.5,101.4 956.1,101.5 L1021.5,102.3 C1015,105.7 1008.5,109 1002.2,112.1 C1001.1,111.1 999.6,110.5 998,110.4 L917.3,109.4 C913.7,109.3 910.8,112.2 910.7,115.8 C910.7,119.4 913.5,122.3 917.1,122.4 L979.9,123.2 C975.4,125.4 971,127.6 966.7,129.7 C963.2,131.5 959.7,133.2 956.3,134.8 C955.6,134.5 954.8,134.3 953.9,134.3 L875.5,133.5 Z M1222.6,42.3 C1219.8,45.1 1217.5,48.5 1215.6,51.6 C1211.5,58 1208.8,61.9 1204.2,61.9 C1191.7,61.9 1187.1,72.9 1184,80.2 C1181.6,85.9 1180.2,88.5 1178.7,88.4 C1168.1,87.6 1156.9,92 1145.3,101.4 C1144.7,101.9 1144.1,102.6 1143.7,103.3 L1131.4,125.5 C1122.8,125.6 1115,125.9 1108.3,126.4 C1098.2,127.2 1090.4,137.1 1084.1,157.5 C1070.5,158.2 1060.1,161.7 1053.2,168.1 C1046.2,174.5 1040.4,184.2 1035.7,197.6 C1025.7,202.3 1020.2,203.3 1017.3,203.3 C1012.5,203.3 1004.1,205.6 982,223.3 L862,222.4 C860.8,219.4 860.7,216.4 861.5,213.4 C867.3,193.5 913.7,170.5 972.6,141.3 C1027.7,114 1096.2,80 1164.3,33.3 C1172,30.1 1185.8,30.8 1202.3,35.1 C1210.1,37.4 1217.3,40 1222.6,42.3 Z"></path>
                    </g>
                    <g transform="translate(0.000000, 460.000000)" id="Path">
                        <path d="M1152.5,211 C1152.5,214.6 1149.6,217.5 1146,217.6 L1146,217.6 C1142.4,217.6 1139.5,214.7 1139.5,211.2 L1139,147 L1139,146.8 L1138.9,134 L1138.9,133.8 L1138.8,121.2 L1138.7,108.2 L1138.3,59.8 L1129,59.8 L1129,211 C1129,214.6 1126.1,217.4 1122.6,217.5 L1077.5,218.2 C1076.2,218.2 1075,217.9 1073.9,217.2 L1060.6,208.7 C1058.7,207.5 1057.6,205.5 1057.6,203.2 L1057.5,149.5 L1057.4,108.1 L1057.3,53.8 L1050.3,13.5 L1043.9,13.5 L1043.3,53.3 L1043.3,211 C1043.3,214.5 1040.5,217.4 1036.9,217.5 L1008.7,218.1 L1002.9,231.1 C1001.8,233.4 999.5,234.9 997,234.9 L876.7,234.9 C874.4,234.9 872.4,233.7 871.3,232 C870.6,231 870.2,229.8 870.2,228.4 L870.2,100.1 L864.1,86 L862.8,86.2 L861.6,99 L861.2,221.3 C861.2,224.9 858.3,227.8 854.7,227.8 L738.7,227.8 C735.1,227.8 732.2,224.9 732.2,221.3 L731.3,79.2 L726.2,48.7 L720.4,48.7 L720.3,78.7 L720.3,228.5 C720.3,230.3 719.6,231.9 718.3,233.2 C717.1,234.4 715.4,235.1 713.6,235 L406.3,227.8 C402.8,227.7 400,224.8 399.9,221.3 L399.3,86 L352.7,76 L134.1,93.5 L134.4,127.1 L134.4,130.2 L135.7,253.4 L172.9,248 L172.9,152.7 C172.9,149.2 175.6,146.4 179,146.2 L307.1,139.1 C308.9,139 310.6,139.6 311.9,140.9 C313.2,142.1 313.9,143.8 313.9,145.6 L313.9,245.3 L351.4,236.1 C351.9,236 352.5,235.9 353,235.9 L411.6,236.5 L628.7,236.5 C632.3,236.5 635.2,239.4 635.2,243 L635.2,268.1 C635.2,271.4 632.7,274.1 629.5,274.6 L0,351.9 L0,338.8 L622.4,262.6 L622.4,249.8 L411.7,249.8 L353.9,249.2 L309.1,260.2 C307.2,260.7 305.1,260.2 303.5,259 C301.9,257.8 301,255.9 301,253.9 L301,152.6 L185.9,158.9 L185.9,253.7 C185.9,256.9 183.5,259.7 180.3,260.1 L130.2,267.3 C128.3,267.6 126.5,267 125,265.8 C123.6,264.6 122.8,262.8 122.7,260.9 L122.1,201 L122,188 L121.5,135.6 L121.4,122.6 L121,87.4 C121,84 123.6,81.1 127,80.8 L352.6,63 C353.2,62.9 353.9,63 354.5,63.1 L383.5,69.3 L398.1,72.4 L407.2,74.3 C410.2,74.9 412.3,77.6 412.3,80.6 L412.6,143.4 L412.7,156.4 L413,214.8 L419.1,214.9 L432.1,215.2 L445.3,215.5 L458.3,215.8 L462.2,215.9 L475.2,216.2 L490.5,216.6 L503.5,216.9 L512.7,217.1 L525.7,217.4 L540.5,217.7 L553.5,218 L559.8,218.2 L572.8,218.5 L591.3,218.9 L604.3,219.2 L613.5,219.4 L626.5,219.7 L643.6,220.1 L656.6,220.4 L666.5,220.6 L679.5,220.9 L707.2,221.5 L707.2,78.7 L707.4,42.2 C707.4,38.6 710.3,35.7 713.9,35.7 L731.7,35.7 C734.9,35.7 737.6,38 738.1,41.1 L744.2,77.6 C744.3,77.9 744.3,78.3 744.3,78.6 L744.4,89.5 L744.5,102.4 L745.2,214.8 L848.4,214.8 L848.7,101.8 L848.7,98.7 C848.7,98.5 848.7,98.3 848.7,98.1 L850.3,80.2 C850.4,78.6 851.2,77.2 852.2,76.1 C853.1,75.2 854.2,74.6 855.5,74.4 L866.8,72.3 C869.8,71.7 872.8,73.3 874,76.1 L882.7,96.1 C883.1,96.9 883.2,97.8 883.2,98.7 L883.2,222 L992.7,222 L998.5,209.1 C998.8,208.3 999.3,207.6 999.9,207.1 C1001.1,206 1002.6,205.3 1004.2,205.3 L1012.9,205.1 L1030.2,204.7 L1030.2,53.1 L1030.9,6.9 C1030.9,4.7 1032.1,2.8 1033.7,1.6 C1034.7,0.9 1036,0.5 1037.4,0.5 L1055.6,0.5 C1058.8,0.5 1061.5,2.8 1062,5.9 L1070.1,52.1 C1070.2,52.5 1070.2,52.8 1070.2,53.2 L1070.3,108.1 L1070.3,121.1 L1070.3,136.1 L1070.3,149.1 L1070.3,149.4 L1070.4,199.6 L1079.1,205.2 L1115.9,204.7 L1115.9,53.2 C1115.9,49.6 1118.8,46.7 1122.4,46.7 L1144.6,46.7 C1148.2,46.7 1151.1,49.6 1151.1,53.1 L1151.1,57.6 L1151.5,108 L1151.6,117.3 L1151.6,121 L1151.7,133.2 L1151.7,133.4 L1151.8,146.3 L1151.8,146.5 L1152.5,211 Z"></path>
                    </g>
                    <g transform="translate(874.000000, 0.000000)" id="Shape">
                        <path d="M1046.1,230 C1045.9,229.5 1045.7,229.1 1045.4,228.6 C1000.9,160 939.6,102.7 868.2,63 C795.5,22.6 712.8,1 629,0.5 C627.7,0.5 626.3,0.5 625,0.5 L624,0.5 C623,0.5 622,0.5 621,0.5 C537,1.3 454.2,23.4 381.4,64.3 C310.5,104.2 249.7,161.5 205.6,230 L155.5,230 C151.9,230 149,232.9 149,236.5 L149,273.1 L109.9,273.1 C106.3,273.1 103.4,276 103.4,279.6 L103.4,313.4 L16.1,326.5 C12.9,327 10.6,329.7 10.6,332.9 L10.6,387.7 L7.2,387.7 C3.6,387.7 0.7,390.6 0.7,394.2 L0.7,534 C0.7,537.6 3.6,540.5 7.2,540.5 C10.8,540.5 13.7,537.6 13.7,534 L13.7,400.8 L17.1,400.8 C17.3,400.8 17.6,400.8 17.8,400.8 L17.9,400.8 C21.1,400.4 23.6,397.7 23.6,394.4 L23.6,338.7 L110.9,325.6 C114.1,325.1 116.4,322.4 116.4,319.2 L116.4,286.3 L155.5,286.3 C159.1,286.3 162,283.4 162,279.8 L162,243 L209.2,243 C211.4,243 213.5,241.9 214.7,240 C257.8,172 317.7,115.1 387.8,75.7 C458.7,35.8 539.3,14.4 621.1,13.5 C622.1,13.5 623.1,13.5 624,13.5 L625,13.5 C626.3,13.5 627.6,13.5 628.9,13.5 C710.5,14 791,35 861.9,74.4 C931.5,113.1 991.1,168.8 1034.5,235.7 C1036.5,238.7 1040.5,239.6 1043.5,237.6 C1046.1,236 1047.1,232.8 1046.1,230 Z M985.3,568.1 L985.2,581.1 L995,581.1 L995,568.1 L985.3,568.1 Z M972.1,580.8 C972,580.8 971.8,580.9 971.7,580.9 C971.7,580.9 971.6,580.9 971.6,580.9 C971.6,580.9 971.5,580.9 971.5,580.9 C971.4,580.9 971.3,580.9 971.2,581 C971.2,581 971.2,581 971.2,581 C971,581 970.8,581.1 970.7,581.1 C970.5,581.1 970.3,581.1 970.1,581.1 L972.2,581.1 L972.1,580.8 C972.2,580.7 972.2,580.7 972.1,580.8 Z M969.8,581.1 C966.2,580.9 963.4,577.9 963.6,574.3 C963.7,572.2 963.8,570.2 963.8,568.1 L288.1,568.1 C288.1,569.4 288.2,570.7 288.2,572 C288.3,575.6 285.5,578.6 282,578.8 L281.8,578.8 C281.6,578.8 281.4,578.8 281.2,578.8 C280.9,578.8 280.7,578.7 280.4,578.7 C280.3,578.7 280.2,578.6 280.1,578.6 L280.1,578.6 C280,578.6 279.9,578.5 279.8,578.5 C279.8,578.5 279.8,578.5 279.8,578.5 C279.7,578.4 279.5,578.4 279.4,578.3 C279.2,578.2 279.1,578.2 278.9,578.1 C278.9,578.1 278.9,578.1 278.9,578.1 C278.7,578 278.5,577.9 278.4,577.8 C278.2,577.7 278.1,577.6 278,577.5 L278,581.2 L970.3,581.2 C970,581.1 969.9,581.1 969.8,581.1 Z M985.3,568.1 L985.2,581.1 L995,581.1 L995,568.1 L985.3,568.1 Z M972.1,580.8 C972,580.8 971.8,580.9 971.7,580.9 C971.7,580.9 971.6,580.9 971.6,580.9 C971.6,580.9 971.5,580.9 971.5,580.9 C971.4,580.9 971.3,580.9 971.2,581 C971.2,581 971.2,581 971.2,581 C971,581 970.8,581.1 970.7,581.1 C970.5,581.1 970.3,581.1 970.1,581.1 L972.2,581.1 L972.1,580.8 C972.2,580.7 972.2,580.7 972.1,580.8 Z M969.8,581.1 C966.2,580.9 963.4,577.9 963.6,574.3 C963.7,572.2 963.8,570.2 963.8,568.1 L288.1,568.1 C288.1,569.4 288.2,570.7 288.2,572 C288.3,575.6 285.5,578.6 282,578.8 L281.8,578.8 C281.6,578.8 281.4,578.8 281.2,578.8 C280.9,578.8 280.7,578.7 280.4,578.7 C280.3,578.7 280.2,578.6 280.1,578.6 L280.1,578.6 C280,578.6 279.9,578.5 279.8,578.5 C279.8,578.5 279.8,578.5 279.8,578.5 C279.7,578.4 279.5,578.4 279.4,578.3 C279.2,578.2 279.1,578.2 278.9,578.1 C278.9,578.1 278.9,578.1 278.9,578.1 C278.7,578 278.5,577.9 278.4,577.8 C278.2,577.7 278.1,577.6 278,577.5 L278,581.2 L970.3,581.2 C970,581.1 969.9,581.1 969.8,581.1 Z M985.3,568.1 L985.2,581.1 L995,581.1 L995,568.1 L985.3,568.1 Z M971.7,580.9 C971.7,580.9 971.6,580.9 971.6,580.9 C971.6,580.9 971.5,580.9 971.5,580.9 C971.4,580.9 971.3,580.9 971.2,581 C971.2,581 971.2,581 971.2,581 C971,581 970.8,581.1 970.7,581.1 C970.5,581.1 970.3,581.1 970.1,581.1 L972.2,581.1 L972.2,580.7 C972.2,580.7 972.2,580.7 972.1,580.7 C972,580.8 971.9,580.8 971.7,580.9 Z M963.6,574.3 C963.7,572.2 963.8,570.2 963.8,568.1 L288.1,568.1 C288.1,569.4 288.2,570.7 288.2,572 C288.3,575.6 285.5,578.6 282,578.8 L281.8,578.8 C281.6,578.8 281.4,578.8 281.2,578.8 C280.9,578.8 280.7,578.7 280.4,578.7 C280.3,578.7 280.2,578.6 280.1,578.6 L280.1,578.6 C280,578.6 279.9,578.5 279.8,578.5 C279.8,578.5 279.8,578.5 279.8,578.5 C279.7,578.4 279.5,578.4 279.4,578.3 C279.2,578.2 279.1,578.2 278.9,578.1 C278.9,578.1 278.9,578.1 278.9,578.1 C278.7,578 278.5,577.9 278.4,577.8 C278.2,577.7 278.1,577.6 278,577.5 L278,581.2 L970.3,581.2 C970.2,581.2 970.1,581.2 970,581.2 C966.2,580.9 963.4,577.9 963.6,574.3 Z M1066.6,568.1 C1066.5,568.1 1066.5,568.1 1066.4,568.1 L193.4,568.1 C189.8,568.1 186.9,571 186.9,574.6 L186.9,603 C186.9,604.8 187.6,606.5 188.9,607.7 C189.7,608.4 190.5,608.9 191.5,609.2 C192.1,609.4 192.7,609.5 193.4,609.5 C193.5,609.5 193.6,609.5 193.7,609.5 C194.6,609.5 195.6,609.4 196.5,609.4 C211.7,608.8 226.9,608.2 242.1,607.7 C246.4,607.5 250.8,607.4 255.1,607.3 C258.4,607.2 261.8,607.1 265.1,607 C269.4,606.9 273.8,606.7 278.1,606.6 C330.1,604.9 382.5,603.7 434.9,602.7 C441.1,602.6 447.4,602.5 453.6,602.4 C458.7,602.3 463.9,602.2 469,602.2 C472.9,602.1 476.8,602.1 480.7,602 C488.4,601.9 496,601.8 503.7,601.7 C512.8,601.6 521.9,601.5 531.1,601.4 C553.8,601.2 576.5,601.1 599.1,601 C608.1,601 617.1,601 626.1,601 C634.4,601 642.7,601 651,601 C673.6,601.1 696.2,601.2 719,601.4 C728.1,601.5 737.2,601.6 746.4,601.7 C754,601.8 761.7,601.9 769.3,602 C773.3,602.1 777.2,602.1 781.2,602.2 C786.3,602.3 791.3,602.3 796.4,602.4 C802.7,602.5 809,602.6 815.2,602.7 C867.1,603.6 919.5,604.8 972,606.4 C976.3,606.5 980.7,606.6 985,606.8 C988.3,606.9 991.6,607 995,607.1 C999.3,607.2 1003.7,607.4 1008,607.5 C1023.2,608 1038.4,608.5 1053.6,609.1 C1055.2,609.1 1056.9,609.2 1058.6,609.3 C1061.1,609.4 1063.7,609.5 1066.2,609.6 C1066.3,609.6 1066.5,609.6 1066.6,609.6 C1068.2,609.6 1069.8,608.9 1071,607.8 C1072.3,606.6 1073,604.9 1073,603.1 L1073,574.7 C1072.9,571.1 1070.1,568.2 1066.6,568.1 Z M1053.6,596.1 C1052.4,596 1051.3,596 1050.1,596 C1036,595.5 1022,595 1008,594.5 C1003.7,594.4 999.3,594.2 995,594.1 C991.7,594 988.4,593.9 985.1,593.8 C980.8,593.7 976.4,593.5 972.1,593.4 C918.5,591.8 865.1,590.5 812.2,589.7 C798.7,589.5 785.2,589.3 771.7,589.1 C762.7,589 753.6,588.9 744.6,588.8 C726.6,588.6 708.6,588.5 690.7,588.3 C683,588.3 675.3,588.2 667.7,588.2 C665.3,588.2 662.8,588.2 660.4,588.2 C657.1,588.2 653.9,588.2 650.6,588.2 C642.4,588.2 634.2,588.2 626,588.2 C617.1,588.2 608.3,588.2 599.4,588.2 C596.1,588.2 592.9,588.2 589.6,588.2 C587.2,588.2 584.7,588.2 582.3,588.2 C574.6,588.2 567,588.3 559.3,588.3 C541.3,588.4 523.4,588.5 505.4,588.8 C496.4,588.9 487.4,589 478.3,589.1 C464.8,589.3 451.3,589.5 437.8,589.7 C384.3,590.6 331,591.9 277.9,593.6 C273.6,593.7 269.2,593.9 264.9,594 C261.6,594.1 258.3,594.2 255,594.3 C250.7,594.5 246.3,594.6 242,594.8 C227.9,595.3 213.9,595.8 199.8,596.4 L199.8,581.2 L1059.8,581.2 L1059.8,596.4 C1057.8,596.2 1055.7,596.1 1053.6,596.1 Z M969.8,581.1 C966.2,580.9 963.4,577.9 963.6,574.3 C963.7,572.2 963.8,570.2 963.8,568.1 L288.1,568.1 C288.1,569.4 288.2,570.7 288.2,572 C288.3,575.6 285.5,578.6 282,578.8 L281.8,578.8 C281.6,578.8 281.4,578.8 281.2,578.8 C280.9,578.8 280.7,578.7 280.4,578.7 C280.3,578.7 280.2,578.6 280.1,578.6 L280.1,578.6 C280,578.6 279.9,578.5 279.8,578.5 C279.8,578.5 279.8,578.5 279.8,578.5 C279.7,578.4 279.5,578.4 279.4,578.3 C279.2,578.2 279.1,578.2 278.9,578.1 C278.9,578.1 278.9,578.1 278.9,578.1 C278.7,578 278.5,577.9 278.4,577.8 C278.2,577.7 278.1,577.6 278,577.5 L278,581.2 L970.3,581.2 C970,581.1 969.9,581.1 969.8,581.1 Z M972.1,580.8 C972,580.8 971.8,580.9 971.7,580.9 C971.7,580.9 971.6,580.9 971.6,580.9 C971.6,580.9 971.5,580.9 971.5,580.9 C971.4,580.9 971.3,580.9 971.2,581 C971.2,581 971.2,581 971.2,581 C971,581 970.8,581.1 970.7,581.1 C970.5,581.1 970.3,581.1 970.1,581.1 L972.2,581.1 L972.1,580.8 C972.2,580.7 972.2,580.7 972.1,580.8 Z M985.3,568.1 L985.2,581.1 L995,581.1 L995,568.1 L985.3,568.1 Z M969.8,581.1 C966.2,580.9 963.4,577.9 963.6,574.3 C963.7,572.2 963.8,570.2 963.8,568.1 L288.1,568.1 C288.1,569.4 288.2,570.7 288.2,572 C288.3,575.6 285.5,578.6 282,578.8 L281.8,578.8 C281.6,578.8 281.4,578.8 281.2,578.8 C280.9,578.8 280.7,578.7 280.4,578.7 C280.3,578.7 280.2,578.6 280.1,578.6 L280.1,578.6 C280,578.6 279.9,578.5 279.8,578.5 C279.8,578.5 279.8,578.5 279.8,578.5 C279.7,578.4 279.5,578.4 279.4,578.3 C279.2,578.2 279.1,578.2 278.9,578.1 C278.9,578.1 278.9,578.1 278.9,578.1 C278.7,578 278.5,577.9 278.4,577.8 C278.2,577.7 278.1,577.6 278,577.5 L278,581.2 L970.3,581.2 C970,581.1 969.9,581.1 969.8,581.1 Z M972.1,580.8 C972,580.8 971.8,580.9 971.7,580.9 C971.7,580.9 971.6,580.9 971.6,580.9 C971.6,580.9 971.5,580.9 971.5,580.9 C971.4,580.9 971.3,580.9 971.2,581 C971.2,581 971.2,581 971.2,581 C971,581 970.8,581.1 970.7,581.1 C970.5,581.1 970.3,581.1 970.1,581.1 L972.2,581.1 L972.1,580.8 C972.2,580.7 972.2,580.7 972.1,580.8 Z M985.3,568.1 L985.2,581.1 L995,581.1 L995,568.1 L985.3,568.1 Z"></path>
                    </g>
                    <g transform="translate(884.000000, 380.000000)" id="Path">
                        <path d="M77.6,307 C74,307 71.1,304.1 71.1,300.5 L71.1,13.9 L7.8,20.8 C4.2,21.2 1,18.6 0.6,15 C0.2,11.4 2.8,8.2 6.4,7.8 L76.9,0.1 C78.7,-0.1 80.6,0.5 81.9,1.7 C83.3,2.9 84.1,4.7 84.1,6.5 L84.1,300.4 C84.1,304.1 81.2,307 77.6,307 Z"></path>
                    </g>
                    <g transform="translate(955.000000, 387.000000)" id="Path">
                        <path d="M51.5,287 C47.9,287 45,284.1 45,280.5 L45,77.3 C45,76.5 45.2,75.6 45.5,74.8 L55.7,49.9 L55.7,20.2 L36.7,23.8 C35.6,24 34.4,23.9 33.3,23.5 L4.5,13.3 C1.1,12.1 -0.7,8.4 0.5,5 C1.7,1.6 5.4,-0.2 8.8,1 L36,10.6 L61,5.8 C62.9,5.4 64.9,5.9 66.4,7.2 C67.9,8.4 68.8,10.3 68.8,12.2 L68.8,51 C68.8,51.8 68.6,52.7 68.3,53.5 L58.1,78.4 L58.1,280.3 C58,284.1 55.1,287 51.5,287 Z"></path>
                    </g>
                    <g transform="translate(955.000000, 393.000000)" id="Shape">
                        <path d="M92.2,70.3 L91.8,67.5 L84.4,19.4 C84.2,17.9 83.4,16.5 82.3,15.5 L66.5,1.6 C66.5,1.6 66.4,1.5 66.4,1.5 C66.3,1.4 66.2,1.3 66,1.2 C65.8,1.1 65.7,1 65.5,0.9 C65.4,0.8 65.2,0.7 65.1,0.7 C65,0.6 64.9,0.6 64.8,0.6 C64.7,0.5 64.5,0.5 64.4,0.4 C64.2,0.3 64.1,0.3 63.9,0.2 C63.8,0.2 63.8,0.2 63.7,0.2 C63.6,0.2 63.5,0.2 63.4,0.1 C63.4,0.1 63.3,0.1 63.3,0.1 C63.3,0.1 63.2,0.1 63.2,0.1 C63.2,0.1 63.1,0.1 63.1,0.1 C63,0.1 63,0.1 62.9,0.1 C62.9,0.1 62.8,0.1 62.8,0.1 C62.8,0.1 62.8,0.1 62.8,0.1 C62.7,0.1 62.5,0.1 62.4,0.1 C62.3,0.1 62.3,0.1 62.2,0.1 C62,0.1 61.7,0.1 61.5,0.1 C61.4,0.1 61.3,0.1 61.2,0.1 C61.2,0.1 61.2,0.1 61.2,0.1 L61.2,0.1 C59.7,0.3 58.3,1 57.2,2.2 C54.8,4.9 55.1,9 57.8,11.4 L68.6,20.9 L71.8,23.8 L78.7,68.8 L79.3,72.5 C79.8,75.7 82.6,78 85.7,78 C86,78 86.4,78 86.7,77.9 C90.4,77.2 92.8,73.8 92.2,70.3 Z M57.9,70.2 C57.3,66.7 54,64.3 50.4,64.9 L46.8,65.5 L13.1,71.1 L5.5,72.3 C2.3,72.8 0.1,75.6 0.1,78.7 C0.1,79.1 0.1,79.4 0.2,79.8 C0.7,83 3.5,85.2 6.6,85.2 C7,85.2 7.3,85.2 7.7,85.1 L13.1,84.2 L45,78.9 L52.6,77.7 C56.1,77.1 58.5,73.8 57.9,70.2 Z"></path>
                    </g>
                    <g transform="translate(738.000000, 440.000000)" id="Path">
                        <path d="M107.7,122.5 L7.2,122.5 C3.6,122.5 0.7,119.6 0.7,116 C0.7,112.4 3.6,109.5 7.2,109.5 L101.2,109.5 L101.2,38 C101.2,34.4 104.1,31.5 107.7,31.5 L114,31.5 L114,6.9 C114,3.3 116.9,0.4 120.5,0.4 L143.2,0.4 C146.8,0.4 149.7,3.3 149.7,6.9 C149.7,10.5 146.8,13.4 143.2,13.4 L127,13.4 L127,38 C127,41.6 124.1,44.5 120.5,44.5 L114.2,44.5 L114.2,116 C114.2,119.6 111.3,122.5 107.7,122.5 Z"></path>
                    </g>
                    <g transform="translate(383.000000, 510.000000)" id="Shape">
                        <path d="M337.3,43.6 C336.3,41.2 334,39.5 331.3,39.5 L301,39.5 L301,23.6 C301,20.3 298.5,17.5 295.2,17.1 L270.4,14.4 C267.2,14.1 264.3,16.1 263.4,19.2 L259.3,34.1 C122.7,28.5 72.4,25 54.9,23 L54.9,7.2 C54.9,3.6 52,0.7 48.4,0.7 L23.7,0.7 C22.2,0.7 20.7,1.2 19.6,2.2 L2.7,16 C1.6,16.9 0.8,18.2 0.5,19.5 C1.05415676e-13,21.4 0.4,23.5 1.8,25.2 C4.1,28 8.2,28.4 11,26.1 L15.2,22.7 L26.1,13.8 L42,13.8 L42,20.8 C39.4,21.9 37.1,23.8 37.3,27.6 C37.6,34.4 44.9,35.2 57,36.4 C66.2,37.4 80.3,38.5 98.7,39.6 C135.3,41.9 191,44.5 264.1,47.5 C267.1,47.6 269.8,45.6 270.6,42.7 L274.6,28.2 L288.1,29.7 L288.1,46 C288.1,49.6 291,52.5 294.6,52.5 L331.4,52.5 C334.1,52.5 336.5,50.8 337.4,48.4 C337.7,47.7 337.9,46.8 337.9,46 C337.9,45.2 337.6,44.3 337.3,43.6 Z M793.5,310.7 C793.4,314.3 796.1,317.3 799.7,317.5 C975.5,324.8 1081.5,328.5 1115,328.5 C1115.4,328.5 1115.7,328.5 1116,328.4 C1119.1,327.9 1121.5,325.2 1121.5,322 C1121.5,318.8 1119.1,316.1 1116,315.6 C1115.7,315.5 1115.3,315.5 1115,315.5 C1081.8,315.5 976.4,311.8 801.7,304.6 C801.7,304.4 801.7,304.2 801.7,304 C801.7,297.1 805.4,290.9 812.9,285.2 C823.9,276.9 828.2,277.1 828.9,277.2 C828.9,277.2 829,277.2 829,277.2 C830.1,278.6 831.8,279.5 833.8,279.5 C990.6,284.8 1085.2,287.5 1115,287.5 C1115.4,287.5 1115.7,287.5 1116,287.4 C1119.1,286.9 1121.5,284.2 1121.5,281 C1121.5,277.8 1119.1,275.1 1116,274.6 C1115.7,274.5 1115.3,274.5 1115,274.5 C1085.5,274.5 992,271.8 837.1,266.6 C838.5,262 842.2,257.8 848.4,253.7 C855.6,249 859,247.9 860.2,247.6 C861,248.1 862,248.4 863,248.4 L863,248.4 C863.1,248.4 863.2,248.4 863.2,248.4 C1003.3,253.1 1087.8,255.5 1114.5,255.5 C1115,255.5 1115.6,255.4 1116,255.3 C1118.8,254.6 1121,252.1 1121,249 C1121,245.9 1118.9,243.4 1116,242.7 C1115.5,242.6 1115,242.5 1114.5,242.5 C1088.5,242.5 1006.6,240.2 871.1,235.7 C872.5,231.7 874.9,231.5 876.2,231.4 C882.8,230.8 888,231.1 891.7,232.2 C895.1,233.2 898.8,231.3 899.8,227.8 C900.8,224.4 898.9,220.7 895.4,219.7 C890.1,218.1 883.4,217.7 875,218.5 C869.6,219 860.8,221.9 857.9,234.9 C852.7,235.9 846.9,239.2 841.4,242.8 C831.9,249 826.1,256.3 824.3,264.6 C818.9,265.8 812.7,269.1 805.2,274.8 C796.3,281.6 791,289.4 789.4,298.1 C778.1,299.6 760.1,303.6 760.1,317.4 C760.1,322.2 758.9,328.1 756.7,334.8 C753.9,334.6 750.5,334.9 746.6,336.5 C741.2,338.7 735.3,342.8 728.6,349.1 C717.3,359.8 710.7,370.5 709,380.9 C701.1,382.8 691.4,387.4 679.6,394.8 C667.5,402.3 659.1,413.8 654.5,428.9 L668.2,428.9 C672,418.7 678,411.1 686.5,405.8 C699.1,397.9 707.2,394.7 712.2,393.5 C713.1,395.7 715.2,397.2 717.8,397.4 C947.7,412.3 1081.2,419.8 1114.7,419.8 C1115.2,419.8 1115.8,419.7 1116.2,419.6 C1119,418.9 1121.2,416.4 1121.2,413.3 C1121.2,410.2 1119.1,407.7 1116.2,407 C1115.7,406.9 1115.2,406.8 1114.7,406.8 C1081.6,406.8 949.4,399.3 721.6,384.6 C722.3,376.7 727.7,367.9 737.5,358.6 C746.5,350.1 753.8,346.3 757,348.3 C757.3,348.5 757.6,348.7 757.9,348.8 C758.7,351.3 760.9,353.2 763.7,353.4 C963.1,367 1081.1,373.9 1114.6,373.9 C1115.1,373.9 1115.7,373.8 1116.1,373.7 C1118.9,373 1121.1,370.5 1121.1,367.4 C1121.1,364.3 1119,361.8 1116.1,361.1 C1115.6,361 1115.1,360.9 1114.6,360.9 C1081.6,360.9 965.1,354.1 768.3,340.7 C771.5,331.8 773,324.2 773,317.4 C772.8,317.5 774.1,313.1 793.5,310.7 Z"></path>
                    </g>
                </g>
                <g transform="translate(2025.535000, 470.000000) scale(-1, 1) translate(-2025.535000, -470.000000) translate(1051.035000, 0.000000)" fill="#313D3E">
                    <g transform="translate(403.000000, 603.000000)" id="Path">
                        <path d="M24.5,84 C28.1,84 31,81.1 31,77.5 L31,7.1 C31,3.5 28.1,0.6 24.5,0.6 L7.4,0.6 C3.8,0.6 0.9,3.5 0.9,7.1 C0.9,10.7 3.8,13.6 7.4,13.6 L18,13.6 L18,77.5 C18,81.1 20.9,84 24.5,84 Z"></path>
                    </g>
                    <g transform="translate(447.000000, 603.000000)" id="Path">
                        <path d="M6.7,84 C10.3,84 13.2,81.1 13.2,77.5 L13.2,13.6 L17.1,13.6 L17.1,77.5 C17.1,81.1 20,84 23.6,84 C27.2,84 30.1,81.1 30.1,77.5 L30.1,7.1 C30.1,3.5 27.2,0.6 23.6,0.6 L6.7,0.6 C3.1,0.6 0.2,3.5 0.2,7.1 L0.2,77.5 C0.2,81.1 3.1,84 6.7,84 Z"></path>
                    </g>
                    <g transform="translate(492.000000, 603.000000)" id="Path">
                        <path d="M29.2,84.5 C32.8,84.5 35.7,81.6 35.7,78 L35.7,7.1 C35.7,3.5 32.8,0.6 29.2,0.6 L7,0.6 C3.4,0.6 0.5,3.5 0.5,7.1 L0.5,77.5 C0.5,81.1 3.4,84 7,84 C10.6,84 13.5,81.1 13.5,77.5 L13.5,13.6 L22.7,13.6 L22.7,78 C22.7,81.6 25.6,84.5 29.2,84.5 Z"></path>
                    </g>
                    <g transform="translate(542.000000, 612.000000)" id="Path">
                        <path d="M7,75 C10.6,75 13.5,72.1 13.5,68.5 L13.5,13 L19.8,13 L19.8,68.5 C19.8,72.1 22.7,75 26.3,75 C29.9,75 32.8,72.1 32.8,68.5 L32.8,6.5 C32.8,2.9 29.9,0 26.3,0 L7,0 C3.4,0 0.5,2.9 0.5,6.5 L0.5,68.5 C0.5,72.1 3.4,75 7,75 Z"></path>
                    </g>
                    <g transform="translate(593.000000, 612.000000)" id="Path">
                        <path d="M6.9,75.2 C10.5,75.2 13.4,72.3 13.4,68.7 L13.4,13 L22.7,13 L22.7,68.5 C22.7,72.1 25.6,75 29.2,75 C32.8,75 35.7,72.1 35.7,68.5 L35.7,6.5 C35.7,2.9 32.8,0 29.2,0 L6.9,0 C3.3,0 0.4,2.9 0.4,6.5 L0.4,68.7 C0.4,72.3 3.3,75.2 6.9,75.2 Z"></path>
                    </g>
                    <g transform="translate(645.000000, 612.000000)" id="Path">
                        <path d="M7.2,75.5 C10.8,75.5 13.7,72.6 13.7,69 L13.7,13 L23.6,13 L23.6,68.5 C23.6,72.1 26.5,75 30.1,75 C33.7,75 36.6,72.1 36.6,68.5 L36.6,6.5 C36.6,2.9 33.7,0 30.1,0 L7.2,0 C3.6,0 0.7,2.9 0.7,6.5 L0.7,69 C0.7,72.6 3.6,75.5 7.2,75.5 Z"></path>
                    </g>
                    <g transform="translate(751.000000, 612.000000)" id="Path">
                        <path d="M7.4,75 C11,75 13.9,72.1 13.9,68.5 L13.9,13 L26.6,13 L26.6,62.5 C26.6,66.1 29.5,69 33.1,69 C36.7,69 39.6,66.1 39.6,62.5 L39.6,6.5 C39.6,2.9 36.7,0 33.1,0 L7.4,0 C3.8,0 0.9,2.9 0.9,6.5 L0.9,68.5 C0.9,72.1 3.8,75 7.4,75 Z"></path>
                    </g>
                    <g transform="translate(802.000000, 612.000000)" id="Path">
                        <path d="M6.9,75 C10.5,75 13.4,72.1 13.4,68.5 L13.4,13 L21.1,13 L21.1,63.8 C21.1,67.4 24,70.3 27.6,70.3 C31.2,70.3 34.1,67.4 34.1,63.8 L34.1,6.5 C34.1,2.9 31.2,0 27.6,0 L6.9,0 C3.3,0 0.4,2.9 0.4,6.5 L0.4,68.5 C0.4,72.1 3.3,75 6.9,75 Z"></path>
                    </g>
                    <g transform="translate(52.000000, 582.000000)" id="Path">
                        <path d="M42.6,145.1 C44,145.1 45.3,144.7 46.4,143.9 C48.1,142.7 49.1,140.7 49.1,138.6 L49.1,79.2 L78.1,79.2 C81.7,79.2 84.6,76.3 84.6,72.7 C84.6,69.1 81.7,66.2 78.1,66.2 L42.6,66.2 C39,66.2 36.1,69.1 36.1,72.7 L36.1,129.7 L13.6,122.5 L13.6,18.5 L78.6,13.3 C82.2,13 84.8,9.9 84.6,6.3 C84.4,2.7 81.2,0.1 77.6,0.3 L6.6,6 C3.2,6.3 0.6,9.1 0.6,12.5 L0.6,127.2 C0.6,130 2.4,132.5 5.1,133.4 L40.6,144.8 C41.3,145 42,145.1 42.6,145.1 Z"></path>
                    </g>
                    <g transform="translate(18.000000, 621.000000)" id="Path">
                        <path d="M7.4,92.5 L41.2,92.5 C44.8,92.5 47.7,89.6 47.7,86 C47.7,82.4 44.8,79.5 41.2,79.5 L13.9,79.5 L13.9,19 L42.4,13.4 C45.9,12.7 48.2,9.3 47.5,5.8 C46.8,2.3 43.4,1.11022302e-16 39.9,0.7 L6.1,7.4 C3.1,8 0.9,10.7 0.9,13.8 L0.9,86 C0.9,89.6 3.8,92.5 7.4,92.5 Z"></path>
                    </g>
                    <g transform="translate(0.000000, 673.000000)" id="Shape">
                        <path d="M276.2,148.5 C301.2,161.8 316.1,152.6 334.9,140.9 C350,131.6 367.1,121 391.7,121 C426.5,121 480.5,125.1 552,133.3 C587.4,105.2 617.9,87.7 642.6,81.5 C655.8,78.2 667.3,69.3 679.5,60 C699.3,44.8 721.8,27.6 758.3,27.6 C788.2,27.6 811.3,25.1 833.7,22.7 C847,21.3 859.8,19.9 873.2,19.1 C879.6,18.7 886.2,18.5 893,18.5 C911.9,18.5 932,19.8 949.3,22 C954.2,22.6 959,23.4 963.3,24.1 C991.6,29.2 1004.8,36.6 1004.8,47.6 L1004.8,62.1 C1004.8,65.6 1002,68.5 998.6,68.6 C968.1,74.1 965.5,80.1 965.4,80.3 C964.1,83.6 962.1,86.4 959.3,88.5 L1038.7,89.5 C1040.6,89.5 1042.3,90.4 1043.5,91.7 C1047.4,89.6 1051.4,87.5 1055.3,85.3 L986.8,84.5 C983.2,84.5 980.3,81.5 980.4,77.9 C980.4,74.3 983.4,71.5 986.9,71.5 L987,71.5 L1067.7,72.5 C1070,72.5 1072,73.7 1073.1,75.5 C1076.7,73.5 1080.4,71.4 1084.1,69.3 L1018.8,68.5 C1015.2,68.5 1012.3,65.5 1012.4,61.9 C1012.4,58.3 1015.4,55.5 1018.9,55.5 L1019,55.5 L1099.7,56.5 C1101.2,56.5 1102.5,57 1103.6,57.9 C1121.9,46.9 1140.5,35.1 1159,22.4 C1159.3,22.2 1159.7,22 1160,21.8 C1170.6,17 1186,18 1200.6,21.1 C1201.3,20.1 1202.3,19.3 1203.5,18.8 C1235,6.5 1331.7,0.6 1499.2,0.9 C1499.7,0.9 1500.2,1 1500.7,1.1 C1503.6,1.8 1505.7,4.3 1505.7,7.4 C1505.7,10.5 1503.6,13 1500.7,13.7 C1500.2,13.8 1499.7,13.9 1499.2,13.9 L1499.2,13.9 C1354.7,13.6 1261.4,18 1221.3,27.1 C1231.4,30.8 1239.2,34.8 1241.8,37.2 C1245.5,40.7 1244.4,44.4 1243.9,45.5 C1243.2,47.2 1241.3,50.1 1236.1,50.1 C1233.7,50.1 1231.4,53.4 1228.1,58.5 C1223.7,65.4 1217.7,74.8 1205.8,74.8 C1202.5,74.8 1200.9,77.4 1197.6,85.2 C1194.8,92 1190.4,102.2 1179.3,101.4 C1172.4,100.9 1164.6,104 1156,110.8 L1142.4,135.2 C1141.3,137.3 1139.1,138.5 1136.7,138.5 C1126.9,138.5 1118.2,138.8 1110.8,139.4 C1110.1,139.5 1103.7,140.7 1096.7,165.7 C1095.9,168.5 1093.4,170.5 1090.4,170.5 C1077.8,170.5 1068.7,173 1063.4,177.8 C1057.7,183 1052.6,192 1048.5,204.4 C1048,206.1 1046.8,207.4 1045.2,208.2 C1034,213.7 1025.3,216.4 1018.7,216.4 C1017.7,216.4 1011.6,217.3 989.7,235 C988.5,235.9 987.1,236.5 985.6,236.5 L985.5,236.5 L859.2,235.5 C857,235.5 854.9,234.3 853.7,232.4 C849.3,225.1 848.1,217.5 850.3,209.9 C850.9,207.7 851.8,205.6 853,203.5 L744.5,203.5 C740.9,203.5 738,200.6 738,197 C738,193.4 740.9,190.5 744.5,190.5 L859.8,190.5 C861,190.5 862.1,190.8 863,191.3 C869.6,184.7 878.6,178.2 889.7,171.3 L819,170.4 C815.4,170.4 812.5,167.4 812.6,163.8 C812.6,160.2 815.6,157.4 819.1,157.4 L819.2,157.4 L899.9,158.4 C902.4,158.4 904.6,159.9 905.6,162 C914.2,157.2 923.6,152.3 933.8,147.1 L875,146.4 C871.4,146.4 868.5,143.4 868.6,139.8 C868.6,136.9 870.6,134.4 873.4,133.6 C872.3,133.3 871.2,132.7 870.4,131.8 L856.7,117 L829,117 C833.6,131.3 829,139.8 823.7,144.7 C816.2,151.6 804.5,156.6 788,160 L781.9,168.6 C780.7,170.3 778.7,171.4 776.6,171.4 L758.4,171.4 C754.8,171.4 751.9,168.5 751.9,164.9 L751.9,160.6 L712.4,160.6 C715.9,172.8 714.5,182.8 708,190.3 C701.9,197.4 687.4,207.9 663.6,222.4 L811.8,222.4 C815.4,222.4 818.3,225.3 818.3,228.9 C818.3,232.5 815.4,235.4 811.8,235.4 L663.7,235.4 C660.1,235.4 657.2,232.5 657.2,228.9 C657.2,227.8 657.5,226.7 658,225.8 C657.2,226.3 656.4,226.8 655.6,227.3 C653.8,228.4 651.6,228.5 649.7,227.7 C647.8,226.9 646.4,225.2 645.9,223.2 L639.1,192.7 L582.9,192.7 L574.8,230.4 C574.1,233.7 571,235.9 567.6,235.5 L509.3,228.2 C506,227.8 503.6,225 503.6,221.7 L503.6,210 L456.8,205.3 C478.4,227.9 487,246.2 483,260.8 C482.6,262.4 481.7,264.1 479.9,266 L453.7,266 C466.7,260.7 469.9,257.8 470.6,257 C474.2,242 453.1,218.8 434.6,201.8 C432.5,199.9 431.9,196.9 433.1,194.3 C434.2,191.7 436.9,190.2 439.7,190.5 L510.9,197.6 C514.2,197.9 516.8,200.7 516.8,204.1 L516.8,216 L563.5,221.8 L571.5,184.8 C572.2,181.8 574.8,179.7 577.9,179.7 L644.6,179.7 C647.6,179.7 650.3,181.8 650.9,184.8 L656.9,211.6 C684.6,194.7 694.8,186.2 698.4,182 C702.8,176.9 702.5,168.4 697.4,156.9 C696.5,154.9 696.7,152.6 697.9,150.7 C699.1,148.9 701.1,147.7 703.3,147.7 L758.6,147.7 C762.2,147.7 765.1,150.6 765.1,154.2 L765.1,158.5 L773.4,158.5 L779,150.5 C780,149.1 781.4,148.2 783.1,147.8 C798.4,144.9 809.1,140.6 815.1,135.2 C816.7,133.7 821.7,129.1 813.6,113.6 C812.5,111.6 812.6,109.2 813.8,107.2 C815,105.3 817.1,104.1 819.4,104.1 L859.7,104.1 C861.5,104.1 863.2,104.9 864.5,106.2 L875.8,118.3 C892.1,103.1 898.5,95.4 901,91.5 C901.7,90.4 901.6,89.9 901.5,89.7 C901.3,88.8 899.8,85.6 890.4,80.7 C887.7,79.3 886.4,76.3 887.1,73.4 C887.8,70.5 890.4,68.4 893.4,68.4 L937.5,68.4 C941.1,68.4 944,71.3 944,74.9 L944,80.9 C948.5,80.3 952.5,78.9 953.7,75.8 C956.9,67.3 968.9,61.3 992.3,56.7 L992.3,47.9 C991.9,47.3 987.6,41.4 958.6,36.5 C940,33.4 915.7,31.5 893.4,31.5 C873.1,31.5 854.8,33.5 835.5,35.6 C812.7,38.1 789.2,40.6 758.7,40.6 C726.6,40.6 706.9,55.7 687.8,70.3 C674.5,80.5 662,90.1 646.2,94.1 C622.8,100 593.3,117.2 558.4,145.1 C557,146.2 555.3,146.7 553.6,146.5 C481.2,138.2 426.8,134 392.1,134 C371.2,134 356.5,143.2 342.2,152 C322.5,164.2 302.1,176.8 270.5,160 C250,149.1 197.4,143.9 126.2,145.9 C73.3,147.3 25.5,152.3 0.4,157.3 L0.4,144 C63.8,131.8 230,123.9 276.2,148.5 Z M863.3,213.5 C862.4,216.5 862.6,219.5 863.8,222.5 L983.8,223.4 C1005.9,205.7 1014.3,203.4 1019.1,203.4 C1022,203.4 1027.5,202.4 1037.5,197.7 C1042.2,184.3 1048,174.6 1055,168.2 C1062,161.8 1072.4,158.2 1085.9,157.6 C1092.3,137.3 1100,127.3 1110.1,126.5 C1116.9,125.9 1124.6,125.6 1133.2,125.6 L1145.5,103.4 C1145.9,102.7 1146.4,102 1147.1,101.5 C1158.7,92 1169.9,87.7 1180.5,88.5 C1182,88.6 1183.4,85.9 1185.8,80.3 C1188.9,73 1193.5,62 1206,62 C1210.5,62 1213.3,58.1 1217.4,51.7 C1219.4,48.6 1221.6,45.1 1224.5,42.4 C1219.3,40.1 1212,37.5 1204,35.4 C1187.5,31 1173.7,30.4 1166,33.6 C1098,80.4 1029.4,114.3 974.3,141.6 C915.6,170.6 869.1,193.7 863.3,213.5 Z M951.6,94.9 C951.6,93.9 951.8,93 952.2,92.2 C948.1,93.6 943.1,94.3 937.2,94.3 L937.1,94.3 C933.5,94.3 930.6,91.4 930.6,87.8 L930.6,81.4 L911.4,81.4 C912.5,83 913.2,84.6 913.6,86.3 C914.7,90.4 914,94.6 911.5,98.5 C906.9,105.7 896.4,116.7 879.4,132.3 C878.8,132.8 878.1,133.3 877.4,133.5 L955.8,134.5 C956.6,134.5 957.4,134.7 958.2,135 C961.6,133.3 965.1,131.6 968.6,129.9 C972.9,127.8 977.3,125.6 981.8,123.4 L919,122.6 C915.4,122.6 912.5,119.6 912.6,116 C912.6,112.4 915.6,109.6 919.1,109.6 L919.2,109.6 L999.9,110.6 C1001.5,110.6 1003,111.2 1004.1,112.3 C1010.4,109.1 1016.9,105.8 1023.4,102.5 L958,101.7 C954.5,101.5 951.6,98.5 951.6,94.9 Z"></path>
                    </g>
                    <g transform="translate(0.000000, 460.000000)" id="Path">
                        <path d="M0,339 L0,352.1 L631.6,274.8 C634.9,274.4 637.3,271.6 637.3,268.3 L637.3,243.2 C637.3,239.6 634.4,236.7 630.8,236.7 L413.7,236.7 L355.2,236.1 C354.7,236.1 354.1,236.1 353.6,236.3 L316,245.5 L316,145.8 C316,144 315.3,142.3 314,141.1 C312.7,139.9 310.9,139.2 309.2,139.3 L181,146.3 C177.6,146.5 174.9,149.3 174.9,152.8 L174.9,248.1 L137.7,253.5 L136.4,130.3 L136.4,127.2 L136,93.5 L354.7,76 L401.3,86 L402,221.3 C402,224.8 404.8,227.7 408.4,227.8 L715.7,235 C717.5,235.1 719.1,234.4 720.4,233.2 C721.6,232 722.4,230.3 722.4,228.5 L722.4,78.7 L722.5,48.7 L728.3,48.7 L733.4,79.2 L734.3,221.3 C734.3,224.9 737.2,227.8 740.8,227.8 L856.9,227.8 C860.5,227.8 863.4,224.9 863.4,221.3 L863.8,99 L864.9,86.2 L866.2,86 L872.3,100.1 L872.3,228.5 C872.3,229.8 872.7,231 873.4,232.1 C874.5,233.9 876.6,235 878.8,235 L999,235 C1001.6,235 1003.9,233.5 1004.9,231.2 L1010.7,218.2 L1038.9,217.6 C1042.4,217.5 1045.3,214.6 1045.3,211.1 L1045.3,53.3 L1045.9,13.5 L1052.2,13.5 L1059.2,53.8 L1059.3,108.1 L1059.4,149.5 L1059.5,203.2 C1059.5,205.4 1060.6,207.5 1062.5,208.7 L1075.8,217.2 C1076.9,217.9 1078.1,218.3 1079.4,218.2 L1124.5,217.5 C1128,217.4 1130.9,214.6 1130.9,211 L1130.9,59.7 L1140.2,59.7 L1140.6,108.1 L1140.7,121.1 L1140.8,133.7 L1140.8,133.9 L1140.9,146.7 L1140.9,146.9 L1141.4,211.1 C1141.4,214.7 1144.3,217.5 1147.9,217.5 L1148,217.5 C1151.6,217.5 1154.5,214.5 1154.4,210.9 L1153.9,146.4 L1153.9,146.2 L1153.8,133.3 L1153.8,133.1 L1153.7,120.9 L1153.7,120.5 L1153.6,107.9 L1153.2,53 C1153.2,51.8 1152.9,50.7 1152.3,49.7 C1151.2,47.8 1149.1,46.5 1146.7,46.5 L1124.5,46.5 C1120.9,46.5 1118,49.4 1118,53 L1118,204.4 L1081.2,204.9 L1072.5,199.3 L1072.4,149.1 L1072.4,148.8 L1072.4,135.8 L1072.4,120.8 L1072.4,107.8 L1072.3,52.9 C1072.3,52.5 1072.3,52.2 1072.2,51.8 L1064.1,5.6 C1063.6,2.5 1060.9,0.2 1057.7,0.2 L1039.5,0.2 C1038.2,0.2 1036.9,0.6 1035.9,1.3 C1034.2,2.4 1033.1,4.4 1033,6.6 L1032.3,52.8 L1032.3,204.3 L1015,205 L1006.4,205.2 C1004.7,205.2 1003.2,205.9 1002,207 C1001.4,207.6 1000.9,208.2 1000.6,209 L994.8,221.9 L885.2,221.9 L885.2,98.7 C885.2,97.8 885,96.9 884.7,96.1 L876,76.1 C874.8,73.3 871.8,71.7 868.8,72.3 L857.5,74.4 C856.2,74.6 855.1,75.3 854.2,76.1 C853.1,77.1 852.4,78.6 852.3,80.2 L850.7,98.1 C850.7,98.3 850.7,98.5 850.7,98.7 L850.7,101.8 L850.4,214.8 L747.1,214.8 L746.4,102.4 L746.3,89.5 L746.2,78.6 C746.2,78.3 746.2,77.9 746.1,77.6 L740,41.1 C739.5,38 736.8,35.7 733.6,35.7 L715.8,35.7 C712.2,35.7 709.3,38.6 709.3,42.2 L709.1,78.7 L709.1,221.9 L681.4,221.3 L668.5,221 L658.6,220.8 L645.6,220.5 L628.5,220.1 L615.5,219.8 L606.3,219.6 L593.3,219.3 L574.8,218.9 L561.8,218.6 L555.5,218.4 L542.5,218.1 L527.7,217.8 L514.7,217.5 L505.5,217.3 L492.5,217 L477.2,216.6 L464.2,216.3 L460.3,216.2 L447.3,215.9 L434.1,215.6 L421.1,215.3 L415,215.2 L414.7,156.8 L414.6,143.8 L414.3,81 C414.3,77.9 412.2,75.3 409.2,74.7 L400.1,72.8 L385.5,69.7 L356.5,63.5 C355.9,63.4 355.2,63.3 354.6,63.4 L129,81 C125.6,81.3 123,84.1 123,87.6 L123.4,122.8 L123.5,135.8 L124,188.2 L124.1,201.2 L124.7,261.1 C124.7,263 125.5,264.7 127,266 C128.4,267.2 130.3,267.8 132.2,267.5 L182.3,260.3 C185.5,259.8 187.9,257.1 187.9,253.9 L187.9,159.1 L303,152.8 L303,254 C303,256 303.9,257.9 305.5,259.1 C307.1,260.3 309.1,260.8 311.1,260.3 L355.9,249.3 L413.7,249.9 L624.5,249.9 L624.5,262.7 L0,339 Z"></path>
                    </g>
                    <g transform="translate(876.000000, 0.000000)" id="Shape">
                        <path d="M7.2,387.8 L10.6,387.8 L10.6,333 C10.6,329.8 12.9,327.1 16.1,326.6 L103.4,313.5 L103.4,279.7 C103.4,276.1 106.3,273.2 109.9,273.2 L149,273.2 L149,236.6 C149,233 151.9,230.1 155.5,230.1 L205.6,230.1 C249.7,161.6 310.4,104.4 381.4,64.4 C454.2,23.4 537,1.4 621,0.6 C622.3,0.6 623.7,0.6 625,0.6 L626,0.6 C627,0.6 628,0.6 629,0.6 C712.8,1.1 795.5,22.7 868.3,63.2 C939.7,102.9 1001,160.2 1045.5,228.8 C1045.8,229.2 1046,229.7 1046.2,230.2 C1047.2,233 1046.2,236.2 1043.6,237.8 C1040.6,239.8 1036.6,238.9 1034.6,235.9 C991.3,169 931.6,113.3 862,74.6 C791,35.1 710.5,14 628.9,13.5 C627.9,13.5 626.9,13.5 626,13.5 L625,13.5 C623.7,13.5 622.4,13.5 621.1,13.5 C539.3,14.3 458.7,35.8 387.8,75.7 C317.7,115.2 257.8,172 214.7,240 C213.5,241.9 211.4,243 209.2,243 L162,243 L162,279.6 C162,283.2 159.1,286.1 155.5,286.1 L116.4,286.1 L116.4,319 C116.4,322.2 114.1,324.9 110.9,325.4 L23.6,338.5 L23.6,394.2 C23.6,397.5 21.1,400.3 17.9,400.6 L17.8,400.6 C17.6,400.6 17.3,400.6 17.1,400.6 L13.7,400.6 L13.7,534 C13.7,537.6 10.8,540.5 7.2,540.5 C3.6,540.5 0.7,537.6 0.7,534 L0.7,394.3 C0.7,390.7 3.6,387.8 7.2,387.8 Z M264.7,568.1 L264.8,581.1 L255,581.1 L255,568.1 L264.7,568.1 Z M277.9,580.8 C278,580.8 278.2,580.9 278.3,580.9 C278.3,580.9 278.4,580.9 278.4,580.9 C278.4,580.9 278.5,580.9 278.5,580.9 C278.6,580.9 278.7,580.9 278.8,581 C278.8,581 278.8,581 278.8,581 C279,581 279.2,581.1 279.3,581.1 C279.5,581.1 279.7,581.1 279.9,581.1 L277.8,581.1 L277.9,580.8 C277.8,580.7 277.8,580.7 277.9,580.8 Z M280.2,581.1 C283.8,580.9 286.6,577.9 286.4,574.3 C286.3,572.2 286.2,570.2 286.2,568.1 L961.9,568.1 C961.9,569.4 961.8,570.7 961.8,572 C961.7,575.6 964.5,578.6 968,578.8 L968.2,578.8 C968.4,578.8 968.6,578.8 968.8,578.8 C969.1,578.8 969.3,578.7 969.6,578.7 C969.7,578.7 969.8,578.6 969.9,578.6 L969.9,578.6 C970,578.6 970.1,578.5 970.2,578.5 C970.2,578.5 970.2,578.5 970.2,578.5 C970.3,578.4 970.5,578.4 970.6,578.3 C970.8,578.2 970.9,578.2 971.1,578.1 C971.1,578.1 971.1,578.1 971.1,578.1 C971.3,578 971.5,577.9 971.6,577.8 C971.8,577.7 971.9,577.6 972,577.5 L972,581.2 L279.7,581.2 C280,581.1 280.1,581.1 280.2,581.1 Z M264.7,568.1 L264.8,581.1 L255,581.1 L255,568.1 L264.7,568.1 Z M277.9,580.8 C278,580.8 278.2,580.9 278.3,580.9 C278.3,580.9 278.4,580.9 278.4,580.9 C278.4,580.9 278.5,580.9 278.5,580.9 C278.6,580.9 278.7,580.9 278.8,581 C278.8,581 278.8,581 278.8,581 C279,581 279.2,581.1 279.3,581.1 C279.5,581.1 279.7,581.1 279.9,581.1 L277.8,581.1 L277.9,580.8 C277.8,580.7 277.8,580.7 277.9,580.8 Z M280.2,581.1 C283.8,580.9 286.6,577.9 286.4,574.3 C286.3,572.2 286.2,570.2 286.2,568.1 L961.9,568.1 C961.9,569.4 961.8,570.7 961.8,572 C961.7,575.6 964.5,578.6 968,578.8 L968.2,578.8 C968.4,578.8 968.6,578.8 968.8,578.8 C969.1,578.8 969.3,578.7 969.6,578.7 C969.7,578.7 969.8,578.6 969.9,578.6 L969.9,578.6 C970,578.6 970.1,578.5 970.2,578.5 C970.2,578.5 970.2,578.5 970.2,578.5 C970.3,578.4 970.5,578.4 970.6,578.3 C970.8,578.2 970.9,578.2 971.1,578.1 C971.1,578.1 971.1,578.1 971.1,578.1 C971.3,578 971.5,577.9 971.6,577.8 C971.8,577.7 971.9,577.6 972,577.5 L972,581.2 L279.7,581.2 C280,581.1 280.1,581.1 280.2,581.1 Z M264.7,568.1 L264.8,581.1 L255,581.1 L255,568.1 L264.7,568.1 Z M278.3,580.9 C278.3,580.9 278.4,580.9 278.4,580.9 C278.4,580.9 278.5,580.9 278.5,580.9 C278.6,580.9 278.7,580.9 278.8,581 C278.8,581 278.8,581 278.8,581 C279,581 279.2,581.1 279.3,581.1 C279.5,581.1 279.7,581.1 279.9,581.1 L277.8,581.1 L277.8,580.7 C277.8,580.7 277.8,580.7 277.9,580.7 C278,580.8 278.1,580.8 278.3,580.9 Z M286.4,574.3 C286.3,572.2 286.2,570.2 286.2,568.1 L961.9,568.1 C961.9,569.4 961.8,570.7 961.8,572 C961.7,575.6 964.5,578.6 968,578.8 L968.2,578.8 C968.4,578.8 968.6,578.8 968.8,578.8 C969.1,578.8 969.3,578.7 969.6,578.7 C969.7,578.7 969.8,578.6 969.9,578.6 L969.9,578.6 C970,578.6 970.1,578.5 970.2,578.5 C970.2,578.5 970.2,578.5 970.2,578.5 C970.3,578.4 970.5,578.4 970.6,578.3 C970.8,578.2 970.9,578.2 971.1,578.1 C971.1,578.1 971.1,578.1 971.1,578.1 C971.3,578 971.5,577.9 971.6,577.8 C971.8,577.7 971.9,577.6 972,577.5 L972,581.2 L279.7,581.2 C279.8,581.2 279.9,581.2 280,581.2 C283.8,580.9 286.6,577.9 286.4,574.3 Z M193.4,568.1 L1066.4,568.1 C1066.5,568.1 1066.6,568.1 1066.6,568.1 C1070.1,568.2 1072.9,571.1 1072.9,574.6 L1072.9,603 C1072.9,604.8 1072.2,606.4 1070.9,607.7 C1069.7,608.8 1068.2,609.5 1066.5,609.5 C1066.4,609.5 1066.2,609.5 1066.1,609.5 C1063.6,609.4 1061,609.3 1058.5,609.2 C1056.8,609.1 1055.2,609.1 1053.5,609 C1038.3,608.4 1023.1,607.9 1007.9,607.4 C1003.6,607.3 999.2,607.1 994.9,607 C991.6,606.9 988.3,606.8 984.9,606.7 C980.6,606.6 976.2,606.4 971.9,606.3 C919.3,604.7 867,603.5 815.1,602.6 C808.9,602.5 802.6,602.4 796.4,602.3 C791.3,602.2 786.1,602.1 781,602.1 C777.1,602 773.2,602 769.3,601.9 C761.6,601.8 754,601.7 746.3,601.6 C737.1,601.5 728,601.4 718.9,601.3 C696.1,601.1 673.5,601 650.9,600.9 C641.9,600.9 632.9,600.9 623.9,600.9 C615.6,600.9 607.3,600.9 599,600.9 C576.4,601 553.7,601.1 531,601.3 C521.9,601.4 512.8,601.5 503.6,601.6 C496,601.7 488.3,601.8 480.7,601.9 C476.7,602 472.8,602 468.8,602.1 C463.7,602.2 458.7,602.2 453.6,602.3 C447.3,602.4 441,602.5 434.8,602.6 C382.4,603.5 330,604.8 278,606.5 C273.7,606.6 269.3,606.8 265,606.9 C261.7,607 258.3,607.1 255,607.2 C250.7,607.3 246.3,607.5 242,607.6 C226.8,608.1 211.6,608.7 196.4,609.3 C195.5,609.3 194.5,609.4 193.6,609.4 C193.5,609.4 193.4,609.4 193.3,609.4 C192.6,609.4 192,609.3 191.4,609.1 C190.4,608.8 189.5,608.3 188.8,607.6 C187.5,606.4 186.8,604.7 186.8,602.9 L186.8,574.5 C186.9,571 189.8,568.1 193.4,568.1 Z M437.8,589.6 C451.3,589.4 464.8,589.2 478.3,589 C487.3,588.9 496.4,588.8 505.4,588.7 C523.4,588.5 541.3,588.3 559.3,588.2 C567,588.2 574.7,588.1 582.3,588.1 C584.7,588.1 587.2,588.1 589.6,588.1 C592.9,588.1 596.1,588.1 599.4,588.1 C607.6,588.1 615.8,588.1 624,588.1 C632.9,588.1 641.7,588.1 650.6,588.1 C653.9,588.1 657.1,588.1 660.4,588.1 C662.8,588.1 665.3,588.1 667.7,588.1 C675.4,588.1 683,588.2 690.7,588.2 C708.6,588.3 726.6,588.5 744.6,588.7 C753.6,588.8 762.6,588.9 771.7,589 C785.2,589.2 798.7,589.4 812.2,589.6 C865.1,590.5 918.5,591.7 972.1,593.3 C976.4,593.4 980.8,593.6 985.1,593.7 C988.4,593.8 991.7,593.9 995,594 C999.3,594.1 1003.7,594.3 1008,594.4 C1022,594.9 1036.1,595.3 1050.2,595.9 C1051.3,595.9 1052.5,596 1053.6,596 C1055.7,596.1 1057.8,596.1 1059.9,596.2 L1059.9,581 L199.9,581 L199.9,596.2 C213.9,595.6 228,595.1 242,594.6 C246.3,594.4 250.7,594.3 255,594.1 C258.3,594 261.6,593.9 264.9,593.8 C269.2,593.7 273.6,593.5 277.9,593.4 C331,591.8 384.3,590.5 437.8,589.6 Z M280.2,581.1 C283.8,580.9 286.6,577.9 286.4,574.3 C286.3,572.2 286.2,570.2 286.2,568.1 L961.9,568.1 C961.9,569.4 961.8,570.7 961.8,572 C961.7,575.6 964.5,578.6 968,578.8 L968.2,578.8 C968.4,578.8 968.6,578.8 968.8,578.8 C969.1,578.8 969.3,578.7 969.6,578.7 C969.7,578.7 969.8,578.6 969.9,578.6 L969.9,578.6 C970,578.6 970.1,578.5 970.2,578.5 C970.2,578.5 970.2,578.5 970.2,578.5 C970.3,578.4 970.5,578.4 970.6,578.3 C970.8,578.2 970.9,578.2 971.1,578.1 C971.1,578.1 971.1,578.1 971.1,578.1 C971.3,578 971.5,577.9 971.6,577.8 C971.8,577.7 971.9,577.6 972,577.5 L972,581.2 L279.7,581.2 C280,581.1 280.1,581.1 280.2,581.1 Z M277.9,580.8 C278,580.8 278.2,580.9 278.3,580.9 C278.3,580.9 278.4,580.9 278.4,580.9 C278.4,580.9 278.5,580.9 278.5,580.9 C278.6,580.9 278.7,580.9 278.8,581 C278.8,581 278.8,581 278.8,581 C279,581 279.2,581.1 279.3,581.1 C279.5,581.1 279.7,581.1 279.9,581.1 L277.8,581.1 L277.9,580.8 C277.8,580.7 277.8,580.7 277.9,580.8 Z M264.7,568.1 L264.8,581.1 L255,581.1 L255,568.1 L264.7,568.1 Z M280.2,581.1 C283.8,580.9 286.6,577.9 286.4,574.3 C286.3,572.2 286.2,570.2 286.2,568.1 L961.9,568.1 C961.9,569.4 961.8,570.7 961.8,572 C961.7,575.6 964.5,578.6 968,578.8 L968.2,578.8 C968.4,578.8 968.6,578.8 968.8,578.8 C969.1,578.8 969.3,578.7 969.6,578.7 C969.7,578.7 969.8,578.6 969.9,578.6 L969.9,578.6 C970,578.6 970.1,578.5 970.2,578.5 C970.2,578.5 970.2,578.5 970.2,578.5 C970.3,578.4 970.5,578.4 970.6,578.3 C970.8,578.2 970.9,578.2 971.1,578.1 C971.1,578.1 971.1,578.1 971.1,578.1 C971.3,578 971.5,577.9 971.6,577.8 C971.8,577.7 971.9,577.6 972,577.5 L972,581.2 L279.7,581.2 C280,581.1 280.1,581.1 280.2,581.1 Z M277.9,580.8 C278,580.8 278.2,580.9 278.3,580.9 C278.3,580.9 278.4,580.9 278.4,580.9 C278.4,580.9 278.5,580.9 278.5,580.9 C278.6,580.9 278.7,580.9 278.8,581 C278.8,581 278.8,581 278.8,581 C279,581 279.2,581.1 279.3,581.1 C279.5,581.1 279.7,581.1 279.9,581.1 L277.8,581.1 L277.9,580.8 C277.8,580.7 277.8,580.7 277.9,580.8 Z M264.7,568.1 L264.8,581.1 L255,581.1 L255,568.1 L264.7,568.1 Z"></path>
                    </g>
                    <g transform="translate(886.000000, 380.000000)" id="Path">
                        <path d="M77.6,307 C81.2,307 84.1,304.1 84.1,300.5 L84.1,6.6 C84.1,4.8 83.3,3 81.9,1.8 C80.5,0.6 78.7,0 76.9,0.2 L6.4,7.9 C2.8,8.3 0.3,11.5 0.6,15.1 C1,18.7 4.2,21.3 7.8,20.9 L71.1,14 L71.1,300.6 C71.1,304.1 74,307 77.6,307 Z"></path>
                    </g>
                    <g transform="translate(957.000000, 387.000000)" id="Path">
                        <path d="M51.5,287 C55.1,287 58,284.1 58,280.5 L58,78.6 L68.2,53.7 C68.5,52.9 68.7,52.1 68.7,51.2 L68.7,12.4 C68.7,10.5 67.8,8.6 66.3,7.4 C64.8,6.2 62.8,5.7 60.9,6 L35.9,10.8 L8.7,1.2 C5.3,5.68434189e-14 1.6,1.8 0.4,5.2 C-0.8,8.6 1,12.3 4.4,13.5 L33.2,23.7 C34.3,24.1 35.5,24.2 36.6,24 L55.6,20.4 L55.6,50.1 L45.4,75 C45.1,75.8 44.9,76.6 44.9,77.5 L44.9,280.7 C45,284.1 47.9,287 51.5,287 Z"></path>
                    </g>
                    <g transform="translate(957.000000, 393.000000)" id="Shape">
                        <path d="M57.3,2.1 C58.4,0.9 59.8,0.2 61.3,0 L61.3,0 C61.3,0 61.3,0 61.3,0 C61.4,0 61.5,0 61.6,0 C61.9,0 62.3,0 62.7,0 C62.8,0 62.9,0 62.9,0 L63,0 C63.1,0 63.3,0 63.4,0.1 C63.4,0.1 63.5,0.1 63.5,0.1 C63.6,0.1 63.7,0.2 63.8,0.2 C63.9,0.2 63.9,0.2 63.9,0.2 C64.1,0.2 64.2,0.3 64.4,0.4 C64.5,0.5 64.7,0.5 64.8,0.6 C64.9,0.6 65,0.7 65.1,0.7 C65.2,0.8 65.4,0.8 65.5,0.9 C65.7,1 65.8,1.1 66,1.2 C66.1,1.3 66.2,1.4 66.4,1.5 C66.5,1.5 66.5,1.6 66.5,1.6 L82.3,15.5 C83.4,16.5 84.2,17.9 84.4,19.4 L91.8,67.5 L92.2,70.3 C92.7,73.8 90.3,77.2 86.8,77.7 C86.5,77.8 86.1,77.8 85.8,77.8 C82.6,77.8 79.9,75.5 79.4,72.3 L78.8,68.6 L71.9,23.6 L68.7,20.7 L57.9,11.2 C55.2,8.9 54.9,4.8 57.3,2.1 Z M5.6,72.3 L13.2,71.1 L46.9,65.5 L50.5,64.9 C54.1,64.3 57.4,66.7 58,70.2 C58.6,73.7 56.2,77.1 52.6,77.7 L45,78.9 L13.1,84.2 L7.7,85.1 C7.3,85.2 7,85.2 6.6,85.2 C3.5,85.2 0.7,82.9 0.2,79.8 C0.1,79.4 0.1,79.1 0.1,78.7 C0.1,75.6 2.4,72.8 5.6,72.3 Z"></path>
                    </g>
                    <g transform="translate(740.000000, 440.000000)" id="Path">
                        <path d="M7.2,122.5 L107.7,122.5 C111.3,122.5 114.2,119.6 114.2,116 L114.2,44.5 L120.5,44.5 C124.1,44.5 127,41.6 127,38 L127,13.4 L143.2,13.4 C146.8,13.4 149.7,10.5 149.7,6.9 C149.7,3.3 146.8,0.4 143.2,0.4 L120.5,0.4 C116.9,0.4 114,3.3 114,6.9 L114,31.5 L107.7,31.5 C104.1,31.5 101.2,34.4 101.2,38 L101.2,109.5 L7.2,109.5 C3.6,109.5 0.7,112.4 0.7,116 C0.7,119.6 3.6,122.5 7.2,122.5 Z"></path>
                    </g>
                    <g transform="translate(385.000000, 510.000000)" id="Shape">
                        <path d="M0.4,19.3 C0.7,18 1.5,16.7 2.6,15.8 L19.5,2 C20.7,1.1 22.1,0.5 23.6,0.5 L48.3,0.5 C51.9,0.5 54.8,3.4 54.8,7 L54.8,22.8 C72.3,24.9 122.6,28.4 259.2,33.9 L263.3,19 C264.1,15.9 267.1,13.9 270.3,14.2 L295.1,16.9 C298.4,17.2 300.9,20 300.9,23.4 L300.9,39.3 L331.2,39.3 C333.9,39.3 336.3,41 337.2,43.4 C337.5,44.1 337.7,45 337.7,45.8 C337.7,46.6 337.5,47.5 337.2,48.2 C336.2,50.6 333.9,52.3 331.2,52.3 L294.4,52.3 C290.8,52.3 287.9,49.4 287.9,45.8 L287.9,29.2 L274.4,27.7 L270.4,42.2 C269.6,45.1 266.9,47.1 263.9,47 C190.7,44.1 135.1,41.4 98.5,39.1 C80.1,38 66.1,36.9 56.8,35.9 C44.7,34.6 37.4,33.9 37.1,27.1 C36.9,23.3 39.2,21.4 41.8,20.3 L41.8,13.3 L25.9,13.3 L15,22.2 L10.8,25.6 C8,27.9 3.9,27.5 1.6,24.7 C0.4,23.3 -0.1,21.2 0.4,19.3 Z M679.4,394.9 C691.2,387.5 700.9,382.9 708.8,381 C710.5,370.6 717.1,360 728.4,349.2 C732.8,345 744.7,333.7 756.4,334.9 C758.7,328.2 759.8,322.4 759.8,317.5 C759.8,303.7 777.9,299.7 789.2,298.2 C790.8,289.5 796.1,281.6 805,274.9 C812.5,269.2 818.8,265.9 824.1,264.7 C826,256.5 831.7,249.2 841.2,242.9 C846.7,239.3 852.5,236 857.7,235 C860.6,222 869.4,219.1 874.8,218.6 C883.2,217.8 889.9,218.3 895.2,219.8 C898.6,220.8 900.6,224.4 899.6,227.9 C898.6,231.3 895,233.3 891.5,232.3 C887.8,231.2 882.6,231 876,231.5 C874.7,231.6 872.4,231.8 870.9,235.8 C1006.4,240.3 1088.3,242.6 1114.3,242.6 C1114.8,242.6 1115.3,242.7 1115.8,242.8 C1118.7,243.5 1120.8,246 1120.8,249.1 C1120.8,252.2 1118.7,254.7 1115.8,255.4 C1115.3,255.5 1114.8,255.6 1114.3,255.6 C1087.7,255.6 1003.1,253.2 863,248.5 C862.9,248.5 862.8,248.5 862.8,248.5 L862.8,248.5 C861.8,248.4 860.9,248.1 860,247.7 C858.8,247.9 855.5,249 848.2,253.8 C842,257.8 838.2,262.1 836.9,266.7 C991.8,271.9 1085.3,274.6 1114.8,274.6 C1115.2,274.6 1115.5,274.6 1115.8,274.7 C1118.9,275.2 1121.3,277.9 1121.3,281.1 C1121.3,284.3 1118.9,287 1115.8,287.5 C1115.5,287.6 1115.1,287.6 1114.8,287.6 C1085,287.6 990.4,284.9 833.6,279.6 C831.7,279.5 830,278.6 828.8,277.3 C828.8,277.3 828.7,277.3 828.7,277.3 C827.9,277.2 823.7,277 812.7,285.3 C805.2,291 801.5,297.2 801.5,304.1 C801.5,304.3 801.5,304.5 801.5,304.7 C976.2,312 1081.7,315.6 1114.8,315.6 C1115.2,315.6 1115.5,315.6 1115.8,315.7 C1118.9,316.2 1121.3,318.9 1121.3,322.1 C1121.3,325.3 1118.9,328 1115.8,328.5 C1115.5,328.6 1115.1,328.6 1114.8,328.6 C1081.4,328.6 975.3,324.9 799.5,317.6 C795.9,317.5 793.1,314.4 793.3,310.8 C773.9,313.2 772.7,317.5 772.7,317.6 C772.7,324.4 771.2,332 768,340.9 C964.8,354.3 1081.3,361.1 1114.3,361.1 C1114.8,361.1 1115.3,361.2 1115.8,361.3 C1118.7,362 1120.8,364.5 1120.8,367.6 C1120.8,370.7 1118.7,373.2 1115.8,373.9 C1115.3,374 1114.8,374.1 1114.3,374.1 C1080.8,374.1 962.7,367.2 763.4,353.6 C760.6,353.4 758.4,351.5 757.6,349 C757.3,348.9 757,348.7 756.7,348.5 C753.5,346.4 746.1,350.3 737.2,358.8 C727.3,368.2 722,376.9 721.3,384.8 C949.1,399.5 1081.3,407 1114.4,407 C1114.9,407 1115.4,407.1 1115.9,407.2 C1118.8,407.9 1120.9,410.4 1120.9,413.5 C1120.9,416.6 1118.8,419.1 1115.9,419.8 C1115.4,419.9 1114.9,420 1114.4,420 C1080.9,420 947.4,412.5 717.5,397.6 C715,397.4 712.9,395.9 711.9,393.7 C706.8,394.9 698.8,398.1 686.2,406 C677.8,411.3 671.7,418.9 667.9,429.1 L654.2,429.1 C658.9,413.9 667.3,402.4 679.4,394.9 Z"></path>
                    </g>
                </g>
            </g>
            <g id="Group" transform="translate(172.000000, 0.000000)">
                <g>
                    <path d="M169.2,6.5 L253.6,6.5 L253.6,300.2 C253.6,341.6 241.6,374.5 217.7,398.7 C193.8,422.9 163.6,435.1 127.2,435.1 C87.9,435.1 56.7,424.3 33.8,402.6 C10.8,380.9 -0.2,349 0.6,306.8 L1.5,305.1 L84.1,305.1 C84.1,327.4 88.1,343.6 96.2,353.9 C104.2,364.2 114.6,369.3 127.3,369.3 C138.8,369.3 148.7,363.2 157,351 C165.2,338.8 169.4,321.9 169.4,300.2 L169.4,6.5 L169.2,6.5 Z M488.2,339.4 L373.7,339.4 L350.5,429.1 L265,429.1 L387.1,6.5 L475.3,6.5 L597.2,429.1 L511.7,429.1 L488.2,339.4 Z M391,273 L470.9,273 L431.9,123.5 L430,123.5 L391,273 Z M720.1,6.5 L797.9,316.8 L799.7,316.8 L878.4,6.5 L989,6.5 L989,429.1 L904.6,429.1 L904.6,306.4 L911.8,142.1 L910,141.8 L827.1,429.2 L770.8,429.2 L688.8,144.2 L687,144.5 L694.5,306.5 L694.5,429.3 L610.1,429.3 L610.1,6.5 L720.1,6.5 Z M1321.1,327.8 C1321.1,301.3 1311.1,280.1 1291.1,264.2 C1271.1,248.3 1236.5,233.8 1187.2,220.7 C1137.7,207.7 1101.5,193 1078.6,176.4 C1055.7,159.8 1044.2,135.7 1044.2,104 C1044.2,72.5 1057.7,47.3 1084.7,28.5 C1111.7,9.7 1146.2,0.3 1188.1,0.3 C1230.4,0.3 1265,11.8 1291.8,34.8 C1318.6,57.8 1331.6,87.4 1330.8,123.6 L1330.2,125.3 L1316.5,125.3 C1316.5,93.8 1304.6,67.6 1280.7,46.9 C1256.9,26.2 1226,15.8 1188,15.8 C1148.7,15.8 1117.5,24.4 1094.6,41.5 C1071.7,58.6 1060.2,79.2 1060.2,103.2 C1060.2,127.2 1069.7,147.1 1088.7,163 C1107.7,178.9 1142,193 1191.7,205.4 C1239.8,217.8 1276.1,232.9 1300.6,250.8 C1325.1,268.7 1337.4,294.1 1337.4,327 C1337.4,360.5 1323.4,386.8 1295.4,406.1 C1267.4,425.4 1232.3,435 1190.2,435 C1146.7,435 1109.2,425.1 1077.8,405.2 C1046.4,385.4 1031.2,354.2 1032.2,311.6 L1032.8,309.9 L1046.2,309.9 C1046.2,348.2 1060.7,376 1089.7,393.3 C1118.7,410.6 1152.2,419.3 1190.1,419.3 C1228.3,419.3 1259.6,410.8 1284.1,393.8 C1308.6,376.8 1321.1,354.9 1321.1,327.8 L1321.1,327.8 Z M1648.7,65.4 C1648.7,67.5 1647.9,69.5 1646.3,71.2 C1644.7,73 1642.8,73.8 1640.6,73.8 L1514.7,73.8 L1514.7,421.1 C1514.7,423.2 1513.8,425.1 1512,426.7 C1510.2,428.3 1508.2,429.1 1506,429.1 C1503.8,429.1 1501.8,428.4 1500,427 C1498.2,425.6 1497.3,423.7 1497.3,421.2 L1497.3,73.9 L1370.8,73.9 C1368.6,73.9 1366.7,73 1365.1,71.3 C1363.5,69.5 1362.7,67.6 1362.7,65.5 C1362.7,63.4 1363.4,61.4 1364.9,59.4 C1366.4,57.4 1368.3,56.5 1370.9,56.5 L1640.7,56.5 C1643.2,56.5 1645.2,57.5 1646.7,59.4 C1648,61.3 1648.7,63.3 1648.7,65.4 L1648.7,65.4 Z M1895.1,302.9 L1682.9,302.9 L1634.6,429.2 L1617,429.2 L1779.2,6.5 L1798.9,6.5 L1961.3,429.1 L1943.7,429.1 L1895.1,302.9 Z M1688.8,287.2 L1889.1,287.2 L1798.2,49.2 L1789.9,25.4 L1788.1,25.4 L1780.1,49.2 L1688.8,287.2 Z M2278.8,299.7 L2279.4,301.4 C2280.2,344.7 2266.7,377.9 2239,400.8 C2211.3,423.7 2174.8,435.2 2129.5,435.2 C2082,435.2 2044,418.1 2015.3,384 C1986.6,349.9 1972.4,305 1972.4,249.5 L1972.4,186.2 C1972.4,130.9 1986.7,86.1 2015.3,51.8 C2043.9,17.5 2082,0.4 2129.5,0.4 C2174.8,0.4 2211.3,11.9 2239,34.9 C2266.7,57.9 2280.2,90.8 2279.4,133.6 L2278.8,135.3 L2265.1,135.3 C2265.1,97.2 2252.9,67.8 2228.6,47.1 C2204.3,26.4 2171.2,16 2129.5,16 C2087.2,16 2053.1,31.6 2027.3,62.7 C2001.5,93.8 1988.6,134.8 1988.6,185.5 L1988.6,249.4 C1988.6,300.7 2001.5,341.8 2027.3,372.9 C2053.1,404 2087.2,419.5 2129.5,419.5 C2171.2,419.5 2204.3,409.5 2228.6,389.6 C2252.9,369.7 2265.1,339.7 2265.1,299.6 L2278.8,299.6 L2278.8,299.7 Z M2428.6,222.8 L2362.1,222.8 L2362.1,429.2 L2346,429.2 L2346,6.5 L2362.1,6.5 L2362.1,207.4 L2433,207.4 L2617.2,6.5 L2636.3,6.5 L2636.9,8 L2446.4,217.3 L2650.6,427.4 L2649.7,429.1 L2631,429.1 L2428.6,222.8 Z" id="Shape" fill="#313D3E"></path>
                    <path d="M1643.6,19.8 C1642,21.4 1640.1,22.2 1637.9,22.2 L1370.8,22.2 C1368.6,22.2 1366.7,21.4 1365.1,19.8 C1363.5,18.2 1362.7,16.4 1362.7,14.2 C1362.7,12 1363.5,10.2 1365.1,8.6 C1366.7,7 1368.6,6.2 1370.8,6.2 L1637.9,6.2 C1640.1,6.2 1642,7 1643.6,8.6 C1645.2,10.2 1646,12.1 1646,14.2 C1646,16.3 1645.2,18.2 1643.6,19.8 Z" id="Path" fill="#00C7B7"></path>
                </g>
            </g>
            <path d="M665,1843.1 L665,1888.7 C665,1916.5 658.2,1937.8 644.7,1952.6 C631.1,1967.5 611.1,1974.9 584.7,1974.9 C558.2,1974.9 538.2,1967.5 524.7,1952.6 C511.1,1937.7 504.4,1916.4 504.4,1888.7 L504.4,1710.3 C504.4,1682.5 511.2,1661.2 524.7,1646.4 C538.3,1631.5 558.3,1624.1 584.7,1624.1 C611.2,1624.1 631.2,1631.5 644.7,1646.4 C658.3,1661.3 665,1682.6 665,1710.3 L665,1743.6 L614,1743.6 L614,1706.8 C614,1694.4 611.5,1685.6 606.4,1680.6 C601.3,1675.5 594.6,1673 586.1,1673 C577.6,1673 570.8,1675.5 565.8,1680.6 C560.7,1685.7 558.2,1694.4 558.2,1706.8 L558.2,1892 C558.2,1904.4 560.7,1913.1 565.8,1918 C570.9,1922.9 577.6,1925.3 586.1,1925.3 C594.6,1925.3 601.4,1922.9 606.4,1918 C611.5,1913.1 614,1904.4 614,1892 L614,1843 L665,1843 L665,1843.1 Z M731.9,1628 L785.8,1628 L785.8,1971 L731.9,1971 L731.9,1628 Z M907,1722.6 L907,1971 L858.5,1971 L858.5,1628 L926.1,1628 L981.5,1833.3 L981.5,1628 L1029.5,1628 L1029.5,1971 L974.1,1971 L907,1722.6 Z M1258.6,1843.1 L1258.6,1888.7 C1258.6,1916.5 1251.8,1937.8 1238.3,1952.6 C1224.7,1967.5 1204.7,1974.9 1178.3,1974.9 C1151.9,1974.9 1131.8,1967.5 1118.3,1952.6 C1104.8,1937.7 1098,1916.4 1098,1888.7 L1098,1710.3 C1098,1682.5 1104.8,1661.2 1118.3,1646.4 C1131.8,1631.6 1151.9,1624.1 1178.3,1624.1 C1204.7,1624.1 1224.8,1631.5 1238.3,1646.4 C1251.9,1661.3 1258.6,1682.6 1258.6,1710.3 L1258.6,1743.6 L1207.6,1743.6 L1207.6,1706.8 C1207.6,1694.4 1205.1,1685.6 1200,1680.6 C1194.9,1675.5 1188.2,1673 1179.7,1673 C1171.2,1673 1164.4,1675.5 1159.4,1680.6 C1154.3,1685.7 1151.8,1694.4 1151.8,1706.8 L1151.8,1892 C1151.8,1904.4 1154.3,1913.1 1159.4,1918 C1164.5,1922.9 1171.2,1925.3 1179.7,1925.3 C1188.2,1925.3 1195,1922.9 1200,1918 C1205.1,1913.1 1207.6,1904.4 1207.6,1892 L1207.6,1843 L1258.6,1843 L1258.6,1843.1 Z M1325.4,1628 L1379.3,1628 L1379.3,1971 L1325.4,1971 L1325.4,1628 Z M1500.6,1722.6 L1500.6,1971 L1452.1,1971 L1452.1,1628 L1519.7,1628 L1575.1,1833.3 L1575.1,1628 L1623.1,1628 L1623.1,1971 L1567.7,1971 L1500.6,1722.6 Z M1743.8,1722.6 L1743.8,1971 L1695.3,1971 L1695.3,1628 L1762.9,1628 L1818.3,1833.3 L1818.3,1628 L1866.3,1628 L1866.3,1971 L1811,1971 L1743.8,1722.6 Z M2113.5,1971 L2059.1,1971 L2049.8,1908.8 L1983.7,1908.8 L1974.4,1971 L1924.9,1971 L1979.8,1628 L2058.7,1628 L2113.5,1971 Z M1990.5,1862.2 L2042.4,1862.2 L2016.4,1688.7 L1990.5,1862.2 Z M2138.2,1628 L2304.8,1628 L2304.8,1677 L2248.5,1677 L2248.5,1971 L2194.6,1971 L2194.6,1677 L2138.3,1677 L2138.3,1628 L2138.2,1628 Z M2362.4,1628 L2416.3,1628 L2416.3,1971 L2362.4,1971 L2362.4,1628 Z" id="Shape" fill="#313D3E" fill-rule="nonzero"></path>
        </g>
    </g>
</svg>